<svg xmlns="http://www.w3.org/2000/svg" width="1935.211" height="1558.435" viewBox="0 0 1935.211 1558.435">
  <g id="brain_logo" opacity="0.05" style="mix-blend-mode: multiply;isolation: isolate">
    <g id="Сгруппировать_38" data-name="Сгруппировать 38">
      <g id="Сгруппировать_35" data-name="Сгруппировать 35" transform="translate(72.671)">
        <path id="Контур_158" data-name="Контур 158" d="M1027.473,435.943c99.475-17.654,201.954-12.536,300.724,6.935,25.442,11.907,54.743,11.461,80.928,21.809,13.872,5.6,28.6,8.383,43.173,11.387a729.564,729.564,0,0,0-140.458,26.965c-41.541-4.339-83.155-9.422-125.03-8.2-82.711-2-165.273,12.238-243.941,37.311-84.341,26.483-161.9,71.213-232.4,124.03a168.051,168.051,0,0,0-17.692,15.169l-.815.038c-2.931,1.446-5.9,2.856-8.829,4.3-2.781-13.13-16.5-3.671-25.257-2.818,13.055-13.612,30.971-20.289,46.029-31.044,5.081-2.411,5.525-7.974,3.524-12.611a46.793,46.793,0,0,1,11.683-10.459c33.232-20.66,67.169-40.615,103.7-54.893,15.875-6.082,31.489-12.908,47.03-19.768,14.39-6.417,29.856-10.645,43.1-19.437-60.345,17.84-117.2,46.029-172.022,76.629-14.651,8.012-28.077,18.247-43.506,24.738-24,3.6-43.322,18.917-63.683,30.822,14.279-25.184,42.727-35.717,64.054-53.483-23.478-2.929-44.063,12.424-61.94,25.555-8.68,9.5-22.885,11.312-30.526,21.809-12.127,9.051-23.625,18.88-36.2,27.262a329,329,0,0,0-57.971,71.1c-6.38,9.311-6.158,21.624-13.464,30.378-22.588,19.695-46.993,38.388-65.019,62.459,18.991-15.837,35.57-34.679,56.526-48.069-7.121,11.758-14.205,23.7-17.656,37.127-11.237,11.944-26.814,18.138-39.389,28.448-13.648,10.348-25.3,23.034-38.832,33.493,5.267-8.2,11.869-15.431,18.1-22.885-4.637,2.041-9.2,4.266-13.723,6.566a26.239,26.239,0,0,1-11.054,5.452l7.492.149a570.625,570.625,0,0,0-74.031,82.227c-15.837-17.618-26.037-39.092-38.239-59.122,7.677,17.358,16.579,34.124,25.035,51.147-2.523-.222-7.53-.631-10.015-.815,4.228,7.639,8.345,15.391,11.35,23.625l-1.743,3.042c-16.542-16.172-28.966-36.014-40.762-55.784,8.161-6.973,9.051-17.989,14.243-26.556,26.667-24,44.768-56.45,74.624-77.22l.371,8.27c23.516-28.708,53.3-51.11,80.559-76,16.468-15.653,38.352-25.184,51.889-43.877,14.8-12.389,29.339-25.111,44.656-36.868,4.155-4.006,9.866-4.191,15.28-4.748,6.12-5.154,8.012-13.575,14.391-18.4,15.393-12.76,34.308-19.917,51.258-30.116.482-2.078,1.41-6.269,1.854-8.347,83.713-56.19,171.615-107.893,267.417-140.607a116.109,116.109,0,0,0,36.9-11.461c24.294-7.084,49.442-10.83,74.4-14.65C1004.588,441.617,1015.38,436.24,1027.473,435.943ZM412.672,862.4q-3.451,8.288,4.488,4.228Q420.385,858.061,412.672,862.4Z" transform="translate(-265.721 -425.126)" fill="#c6bb52"/>
      </g>
      <path id="Контур_159" data-name="Контур 159" d="M899.736,476.042c34.122-3.486,67.837-10.83,102.257-11.609a177.124,177.124,0,0,1,21.363,9.16c-27.447.966-55-4.153-82.338-.3C927.33,475.19,913.5,475.114,899.736,476.042Z" transform="translate(308.812 -394.013)" fill="#c6bb52"/>
      <path id="Контур_160" data-name="Контур 160" d="M875.576,474.66c10.608-2.039,21.289-4.266,32.157-4.117a159.575,159.575,0,0,1-31.193,8.42c-.149-.668-.444-2-.593-2.709Z" transform="translate(289.688 -389.182)" fill="#c6bb52"/>
      <path id="Контур_161" data-name="Контур 161" d="M901.661,485.434c33.121-5.9,66.836-10.57,100.551-10.164,13.426,5.416,26.927,10.683,40.093,16.8-34.642-2.449-69.432-2.485-103.889,2.261C926.177,491.332,914.456,485.694,901.661,485.434Z" transform="translate(310.336 -385.453)" fill="#c6bb52"/>
      <path id="Контур_162" data-name="Контур 162" d="M966.936,475.5c13.91-.482,27.966-.964,41.69,2,36.163,17.47,74.884,30.636,107.931,53.817-6.158,1.15-12.2-.667-17.951-2.558-25.555-10.905-50.295-24.7-77.073-32.119l-.407-.038C1004.211,486.889,985.258,481.7,966.936,475.5Z" transform="translate(362.005 -385.536)" fill="#c6bb52"/>
      <path id="Контур_163" data-name="Контур 163" d="M924.144,486.526c15.615-.222,31.266-2.447,46.882-.7,11.98,8.754,26.408,12.982,39.056,20.585-.817,1.594-2.485,4.821-3.338,6.416,5.119,2.856,10.755,5.23,14.539,10.015-16.319-4.488-31.23-12.759-47.252-18.138C957.673,497.875,940.279,493.833,924.144,486.526Z" transform="translate(328.133 -377.607)" fill="#c6bb52"/>
      <path id="Контур_164" data-name="Контур 164" d="M957.62,485.839c23.256.26,46.844,2,69.321,8.309,14.836,8.456,30.414,15.391,45.583,23.181,5.378,3.04,12.315,4.377,15.653,10.162a205.124,205.124,0,0,0-34.086-6.3c20.771,4.339,40.761,11.609,60.012,20.4.668,2.411,1.965,7.308,2.6,9.755-7.084-1.559-14.168-3.078-20.845-5.971-40.02-16.579-79-35.681-119.689-50.7C969.822,492.181,962.479,490.957,957.62,485.839Z" transform="translate(354.631 -377.069)" fill="#c6bb52"/>
      <path id="Контур_165" data-name="Контур 165" d="M1091.9,521.406c9.68.706,16.393,8.123,22.551,14.762-4.377,3.82-6.009,8.678-4.97,14.5C1096.385,549.039,1093.305,532.311,1091.9,521.406Z" transform="translate(460.92 -348.915)" fill="#c6bb52"/>
      <path id="Контур_166" data-name="Контур 166" d="M1164.119,531.861c14.093,9.309,23.663,23,31.377,37.72,17.247,24.962,28.744,53.113,39.538,81.3-.742-17.987-5.971-35.272-10.348-52.555,2.448,1,7.417,3,9.866,4.006-1.226-3.821-2.485-7.641-3.711-11.425-3.115-11.5-10.941-21.438-11.831-33.491,7.568,13.8,14.614,27.855,21.846,41.837l.073.224c14.985,37.906,24.48,79.891,14.354,120.319-.556,2.336-1.706,7.046-2.263,9.382-.147.631-.482,1.892-.629,2.56-1.372,4.006-2.82,8.012-4.341,11.98a231.639,231.639,0,0,1-17.023,31.266,183.537,183.537,0,0,1-30.376,35.421c-4.9,4.488-9.9,8.9-15.022,13.13l-3.56,2.669c1.595,3.042,3.189,6.12,4.784,9.2a14.157,14.157,0,0,1-9.531-4.747c-4.859,3.6-9.681,7.159-14.465,10.794a254.421,254.421,0,0,1-27,17.729c-1.3.7-3.895,2.188-5.192,2.893-15.467-17.285-29.561-35.867-46.362-51.853,12.462,19.1,27.964,36.016,42.43,53.6a392.566,392.566,0,0,1-35.643,18.693c-20.918-21.957-38.943-46.586-59.084-69.285,5.194-.407,9.94-2.707,14.688-4.783,9.83-4.081,19.548-8.494,29.227-13.019,2.485-1.113,7.492-3.338,10.015-4.413a207.974,207.974,0,0,0,25.073-13.279A244.952,244.952,0,0,0,1152.4,747.8c5.377-5.119,13.759-6.675,17.283-13.8,7.121-13.39,18.62-26.594,17.172-42.616-1.817-9.384,3.375-18.175,2.336-27.522-.555-7.6-3.857-14.539-7.268-21.216-6.677-13.648-13.574-27.187-20.956-40.464l-1.854-3.56c1.743-2.782,5.229-8.272,6.973-11.016a181.833,181.833,0,0,1,13.537,19.435,318.33,318.33,0,0,1,29.672,63.127c1-22.328-8.123-43.506-18.063-62.941-5.378-10.164-11.052-20.1-17.283-29.747,3.338.111,9.94.3,13.24.408-5.711-11.5-15.28-20.511-23.292-30.378C1163.933,543.619,1164.044,535.792,1164.119,531.861Z" transform="translate(413.511 -340.639)" fill="#c6bb52"/>
      <path id="Контур_167" data-name="Контур 167" d="M1079.765,534.759a121.2,121.2,0,0,1,17.952,11.685l-.038,8.307C1086.7,554.937,1082.918,542.993,1079.765,534.759Z" transform="translate(451.316 -338.345)" fill="#c6bb52"/>
      <path id="Контур_168" data-name="Контур 168" d="M1089.992,551.089c2-4.9,10.126-.038,9.829,4.3C1097.818,561.1,1090.289,554.984,1089.992,551.089Z" transform="translate(459.412 -327.042)" fill="#c6bb52"/>
      <path id="Контур_169" data-name="Контур 169" d="M1098.2,554.893c11.09-1.3,11.09,8.494,12.24,16.653-2.263.075-6.786.222-9.087.3-1.15-1.743-3.486-5.3-4.637-7.048C1097.091,562.31,1097.833,557.378,1098.2,554.893Z" transform="translate(464.737 -322.501)" fill="#c6bb52"/>
      <path id="Контур_170" data-name="Контур 170" d="M363.5,721.913c27.558-18.99,48.885-45.174,74.737-66.168-.224,2.967-.668,8.827-.89,11.758-5.119,13.277-9.087,26.927-12.871,40.613a51.226,51.226,0,0,0-13.5,9.866c-21.733,22.624-44.062,44.914-61.642,71.064,20.585-.817,41.17-1.819,61.791-.817.89.928,2.707,2.782,3.6,3.71-21.993.036-44.026,1.706-65.981-.335a116.441,116.441,0,0,0-15.986,27.52c24.776-5.377,49.922-10.681,75.477-9.531-.222,2.076-.666,6.193-.89,8.234-25.517.482-51.034,1.557-76.329,4.9-2.189-1.781-4.339-3.562-6.417-5.342,7.121-9.642,13.872-19.73,17.469-31.3a237.487,237.487,0,0,0-20.1,28.855,209.17,209.17,0,0,1-20.028-20.51C319.919,768.386,338.352,741.645,363.5,721.913Z" transform="translate(-164.388 -242.577)" fill="#c6bb52"/>
      <g id="Сгруппировать_36" data-name="Сгруппировать 36" transform="translate(589.221 474.736)">
        <path id="Контур_171" data-name="Контур 171" d="M1356.335,705.726c15.837-4.9,31.453-10.608,47.29-15.615,20.363,23.552,42.727,45.361,62.051,69.84-37.868-5.007-75.847-11.387-114.2-9.977-37.609,2.6-75.514,6.862-111.157,19.879-34.049,12.8-66.243,30.229-97.065,49.479-13.277,2-26.7,2.707-40.056,4.153-23.479,1.6-46.957,3.635-70.509,4.488-4.45-.149-8.456,1.892-12.276,3.857,26.221,3.562,52.926,1.077,79-2.6,11.5-2,23.107-2.967,34.679-4.3-17.58,12.684-34.235,26.556-51.962,39.018-16.654,1.892-33.011,5.563-49.553,8.085-46.1,7.122-91.945,16.1-138.309,21.475-3.633.3-7.232.482-10.792.631-12.091-.26-24.182-.631-36.274-.519-19.77.631-39.427-2.189-59.159-2.893q-117.109-1.892-234-10.608c24.851-12.24,47.179-28.633,71.213-42.283,29.71-.631,58.786,6.973,88.347,8.791,21.067,1.928,45.585,16.355,64.76,3.078-8.123-.111-16.135.26-24.183.742,6.6-1.3,13.2-2.707,19.768-4.377-10.792-1.743-21.66-2.669-32.416-4.266,16.024-6.3,33.975-1.075,50.814-2.634-6.9-2.41-17.172.224-20.547-8.048,18.878.444,37.831.408,56.561,3.264,26.185,2.707,52.555,2.707,78.854,3.449,17.987-1.372,37.608,4.155,54.372-3.56-16.8-4.748-34.382-4.266-51.665-3.524-54.56,1.892-108.932-3.524-163.455-3.486,9.309,2.3,23.032-2.56,27.818,8.085-41.541-3.449-83.008-8.53-124.141-14.761,22.737-16.321,42.691-36.2,66.021-51.742-1.3-1.594-3.895-4.746-5.192-6.342,10.83-6.675,22.068-12.722,32.452-20.1,14.763,1.519,29.561,2.929,44.434,3.449a280.934,280.934,0,0,0-29.412,4.19c.631.817,1.854,2.449,2.447,3.227,41.319-1.335,82.636,3.673,123.657,7.974,20.845-3.3,41.987-1.148,62.979-1.705,12.351.3,24.7-2.114,37.016-.667,10.757,1.3,21.1,5.3,32.01,5.376,1.113-1.89,3.374-5.636,4.488-7.528A300.565,300.565,0,0,0,1068.3,754.5c5.3-.557,10.644-1.039,15.984-1.521,52.706-2.856,104.742-12.2,156.668-21.1,9.94-.742,20.1-.3,29.634-3.857,17.8-5.934,36.72-5.452,55-8.642C1336.01,715.257,1345.32,708.62,1356.335,705.726ZM964.816,836.283c15.391,1.892,30.414-2.969,45.434-5.638C995.23,832.128,978.353,828.6,964.816,836.283ZM595.029,863.952c25.927,8.01,53.67,20.992,81.079,12.8C648.772,874.6,622.18,867.474,595.029,863.952Z" transform="translate(-554.045 -690.111)" fill="#c6bb52"/>
      </g>
      <path id="Контур_172" data-name="Контур 172" d="M548.482,700.152c19.917.184,39.278,5.043,58.862,8.159,28.076,5.3,56.6,8.383,84.157,16.172a428.2,428.2,0,0,1-87.9,66.539C549.224,777.856,494.59,765.8,439.624,755.341c-1.188-4.3-2.671-8.567-4.081-12.8,3.71-1.077,11.127-3.191,14.836-4.228-5.674-2.709-11.312-5.527-16.8-8.6,32.974-1.892,65.686,3.708,98.029,9.42,23.108,3.857,47.141,6.082,70.211.52C586.053,723.777,563.354,716.991,548.482,700.152Z" transform="translate(-60.181 -207.427)" fill="#c6bb52"/>
      <path id="Контур_173" data-name="Контур 173" d="M261.566,717.107c12.165,20.177,27.6,38.092,40.391,57.823l-1.335,2.969c-18.433-13.353-32.121-32.083-44.879-50.628C257.189,724.748,260.082,719.667,261.566,717.107Z" transform="translate(-200.948 -194.006)" fill="#c6bb52"/>
      <path id="Контур_174" data-name="Контур 174" d="M273.387,730.377c13.241,21.513,31.639,38.907,48.032,57.9a13.705,13.705,0,0,0-8.678,11.461c-3.413,16.839-9.9,33.269-9.124,50.7,1.965-5.3,2.967-10.9,4.042-16.393.855.668,2.523,1.965,3.34,2.634-8.309,49.329,1.632,101.255,26.259,144.686,25.815,45.473,66.874,81.487,113.755,104.149-21.291-1.15-40.28-12.944-59.715-20.585,3.04,7.566,10.013,12.277,15.318,18.211-31.675-16.1-58.973-40.28-80.188-68.653-19.843-26.261-33.01-56.674-46.437-86.495a79.767,79.767,0,0,0-9.309-15.725c-2.856,28.855,2.929,57.3,8.123,85.492-11.2-7.084-13.315-21.884-18.657-33.158-11.572-28.522-15.836-59.122-17.468-89.573-7.2,24-9.236,49.4-7.863,74.328.371,7.679.482,15.429-1.113,23-3.895-22.328-11.127-44.361-7.6-67.318.371-29.079,19.954-53.372,19.879-82.378C253.21,791.428,260.258,759.753,273.387,730.377Z" transform="translate(-225.158 -183.502)" fill="#c6bb52"/>
      <path id="Контур_175" data-name="Контур 175" d="M943.294,749.384c58.935-16.468,121.21-21.142,181.666-10.905-4.525,2.523-8.938,7.159-14.576,5.749-34.419-3.968-69.21-3.56-103.778-2.076C985.242,742.6,964.658,749.457,943.294,749.384Z" transform="translate(343.291 -181.367)" fill="#c6bb52"/>
      <path id="Контур_176" data-name="Контур 176" d="M436.828,766.133c.147-6.824.778-13.648,1-20.436,44.062,6.157,87.679,15.5,130.7,26.816a186.192,186.192,0,0,1-28.966,12.018C506.111,774.554,471.765,767.246,436.828,766.133Z" transform="translate(-57.608 -171.375)" fill="#c6bb52"/>
      <path id="Контур_177" data-name="Контур 177" d="M904.208,761.21c13.759-12.906,33.936-15.5,52.073-15.429C938.812,750.566,921.9,757.539,904.208,761.21Z" transform="translate(312.352 -171.31)" fill="#c6bb52"/>
      <path id="Контур_178" data-name="Контур 178" d="M1018.713,751.95c31.564-4.266,63.609-8.272,95.506-5.081-25.3,9.309-51.554,15.54-77.258,23.589-16.988,3.151-34.122,6.231-50.295,12.573-29.523,4.191-58.082,13.129-87.532,17.692,13.019-7.641,26.669-14.427,41.281-18.509,14.985-4.079,29.932-8.53,44.248-14.687,15.95-5.712,34.235-4.339,48.96-13.093-13.241-.668-25.555,4.748-38.352,6.935C1000.317,753.582,1010.7,754.175,1018.713,751.95Z" transform="translate(308.337 -171.359)" fill="#c6bb52"/>
      <path id="Контур_179" data-name="Контур 179" d="M340.706,761.521c8.9-4.377,18.358-8.234,28.559-7.27v15.431c-2.114.742-6.417,2.261-8.531,3.04C353.2,770.683,343.6,770.2,340.706,761.521Z" transform="translate(-133.694 -164.722)" fill="#c6bb52"/>
      <path id="Контур_180" data-name="Контур 180" d="M411.612,777.5c1.335-7.9-1.113-19.026,6.713-23.959,3.673,7.306,1.781,16.652,3.3,24.738l-2.078-.149-6.786-.555Z" transform="translate(-77.568 -165.164)" fill="#c6bb52"/>
      <path id="Контур_181" data-name="Контур 181" d="M437.117,759.754c30.118,4.377,59.568,12.537,89.351,18.582a302.845,302.845,0,0,1-36.534,12.426c-16.69-2.411-32.9-7.048-49.478-9.977C439.566,773.737,438.23,766.764,437.117,759.754Z" transform="translate(-57.379 -160.248)" fill="#c6bb52"/>
      <path id="Контур_182" data-name="Контур 182" d="M289.05,770.147c5.3,7.937,13.2,13.315,21.363,18.025-17.505,54.078-9.68,116.8,24.331,162.937,12.5,19.879,32.787,32.49,51.629,45.62-25.146-23.665-50.146-48.774-64.018-81.006-18.136-39.389-20.7-84.823-10.977-126.773,6.489,4.934,12.313,10.681,18.136,16.395l-4.266-2.078c-7.009,44.026-.667,91.354,24.813,128.74,38.612,59.009,108.71,89.535,176.883,97.063,13.537,2.56,29.226,2.485,39.685,12.722-14.836,5.638-30.9,4.155-46.324,3.153-7.566-1.559-15.244-2.411-22.885-3.338-1.519-4.377-2.558-8.9-5.452-12.611.668,4.228,1.41,8.456,2.263,12.647-27-3.449-52.742-12.387-77.888-22.439,13.834,6.677,28.076,12.462,42.245,18.509,26.185,11.461,54.745,16.022,82.933,19.843,23.477,2.967,47.177,2.225,70.767,1.408.668.557,1.93,1.743,2.6,2.338a695.174,695.174,0,0,1-76.589,2.263C469.6,1060,399.5,1036.9,349.024,988.718c-40.428-37.943-64.686-92.688-64.24-148.286-1.41-17.765,4.821-34.975,3.746-52.7-.631,1-1.965,3-2.634,4.043-3.375,21.251-4.19,42.8-4.859,64.276C276.364,827.339,280.185,797.742,289.05,770.147Z" transform="translate(-182.515 -152.021)" fill="#c6bb52"/>
      <path id="Контур_183" data-name="Контур 183" d="M688.922,849.72c.333-.224,1.075-.706,1.41-.966C690,849.014,689.255,849.5,688.922,849.72Z" transform="translate(141.94 -89.799)" fill="#c6bb52"/>
      <path id="Контур_184" data-name="Контур 184" d="M624.384,946.8c69.876-23.441,132.113-64.387,197.8-96.99-17.876,14.614-36.421,28.6-57.192,38.945-46.4,24.813-94.245,47.141-144.093,64.165-14.465,5.712-30.34,7.53-44.175,14.911-19.435,3.522-37.719,12.091-57.934,11.239,18.842-3.524,36.718-10.832,55.709-13.464,16.69-4.934,32.714-11.907,48.774-18.509Z" transform="translate(7.269 -88.963)" fill="#c6bb52"/>
      <path id="Контур_185" data-name="Контур 185" d="M483.677,929.574c16.506-2.521,32.676-8.2,49.553-6.935-9.644,5.9-21.1,6.6-31.972,8.307C495.4,930.5,489.537,930.02,483.677,929.574Z" transform="translate(-20.524 -31.457)" fill="#c6bb52"/>
      <path id="Контур_186" data-name="Контур 186" d="M1077.03,966.635a247.383,247.383,0,0,1,6.935,36.05c1.446.966,4.339,2.857,5.786,3.821h-5.23c-.335,18.285,1,36.569,2.225,54.818l-3.191-1.781-2.41-2.558c-.26-19.695-3.153-39.2-4.006-58.862-.186-2.671-.519-8.048-.668-10.719C1076.548,980.469,1076.881,973.532,1077.03,966.635Z" transform="translate(448.711 3.511)" fill="#c6bb52"/>
      <g id="Сгруппировать_37" data-name="Сгруппировать 37" transform="translate(1386.802 1153.591)">
        <path id="Контур_187" data-name="Контур 187" d="M1165.618,1128.708c-.224-20.1-7.27-39.538-5.6-59.679,7.381,26.816,12.946,54.152,19.362,81.263a134.632,134.632,0,0,0,3.857,13.428c6.6,18.358,15.318,35.938,20.807,54.744,2.745,10.237,8.531,19.138,14.5,27.78,7.53,22.18,13.315,44.952,22.921,66.39,5.825,10.867,1.3,25.408,10.57,34.457,5.194-19.583-2.558-38.981-7.12-57.823-4.266-17.8-15.355-32.787-21.067-50.035-4.9-18.62-16.654-34.6-20.325-53.557-3.6-14.058-10.572-27.3-10.868-42.061,3.411,4.71,6.638,9.533,9.829,14.427,2.6.075,5.229.149,7.863.3,1.965,5.118,3.968,10.237,5.971,15.391,1.557,4.044,3.189,8.2,5.081,12.166,1.372,2.3,4.079,6.862,5.452,9.125l3.413.073a20.737,20.737,0,0,0-3.857,10.348l5.823,1.335a24.947,24.947,0,0,0,5.638,9.051c-.444,8.567,6.529,6.045,11.98,5.414-.333-8.53-.593-17.023-.631-25.555,17.692,33.715,28.077,70.4,43.247,105.188,4.526,18.544,12.389,36.087,17.656,54.448l-5.638.742c13.388,28.559,15.651,62.422,8.419,93.095-3.152,9.087-8.01,18.879-17.172,23.181-20.883,4.9-42.838-2.374-59.01-16.022-29.486-24.851-54.93-54.263-77.48-85.418-8.976-9.828-13.91-22.625-23.7-31.712-8.791-8.9-16.283-19.137-20.474-31.006-8.754-9.569-13.537-22.217-22.921-31.082-12.871-9.829-17.47-26.3-26.186-39.314-14.762-23.516-28.93-47.328-44.4-70.322-5.045-7.9-9.049-17.21-17.729-21.735l6.231,3.449c-4.672-8.494-9.049-17.21-10.83-26.779,11.647,11.8,15.837,31.861,31.972,38.277-7.086-14.984-18.322-28.6-19.77-45.658,16.914,8.643,18.879,32.492,35.05,40.577-5.787,5.785,1.335,13.946,7.641,15.207-.111-5.638-1.965-10.941-4.155-15.986.817-9.049-5.081-16.468-9.087-24,5.267,7.825,10.274,15.8,15.244,23.848,5.823,9.346,11.794,18.62,17.8,27.893,15.5,23.441,32.936,45.545,48.809,68.726,3.228,4.452,6.788,8.531,10.461,12.722,5.3,6.269,10.681,12.686,14.761,19.918.668,1.446,1.965,4.339,2.634,5.747,16.652,13.464,28,31.9,42.1,47.772,11.98,13.428,23.924,29.709,42.618,33.529,2.707-15.391-5.935-28.93-11.758-42.393-9.68-20.066-18.174-40.613-27.114-60.976-.482-2.114-1.519-6.342-2-8.456-1.408-2.634-4.191-7.826-5.6-10.459l.3-1c-.815-2.745-1.67-5.414-2.56-8.086l-1.446-3.746c-5.341-14.132-10.646-28.3-15.762-42.467-.928-2.56-2.782-7.641-3.71-10.163-4.488-12.24-7.084-25-9.828-37.684-1.039-4.635-2.076-9.271-3.153-13.835-3.227-9.753-1.113-22.735-10.9-28.781.26-.853.853-2.559,1.15-3.411,2.559-5.007,5.452-9.755,8.308-14.5C1156.047,1099.554,1159.794,1114.465,1165.618,1128.708Zm21.03,91.165c3.635,5.638,6.786,11.536,10.126,17.434,1.854,3.338,6.12,11.274,10.31,4.783a12.919,12.919,0,0,1-6.564-11.534c-6.973-9.57-10.572-20.734-11.573-32.417C1183.05,1203.7,1187.056,1212.752,1186.647,1219.873Zm31.859,82.489c-2.892,4.524-1.854,7.306,3.116,8.419C1224.442,1306.255,1223.4,1303.437,1218.507,1302.362Z" transform="translate(-999.232 -1069.029)" fill="#c6bb52"/>
      </g>
    </g>
    <g id="Сгруппировать_44" data-name="Сгруппировать 44" transform="translate(8.173 49.223)">
      <g id="Сгруппировать_39" data-name="Сгруппировать 39">
        <path id="Контур_188" data-name="Контур 188" d="M1480.8,454.326c26.3-2.225,52.742-1.928,79.114-1.15,11.832,1.41,25.368,2.6,34.715,10.83,4.674,3.153-.667,7.641-4.377,6.788-19.064,4.006-38.648,1.743-57.9,3-34.419.779-68.135,8.123-102.257,11.609,13.759-.928,27.594-.853,41.281-2.745,27.334-3.857,54.892,1.261,82.338.3,16.654-.036,34.271,9.459,50.108,2.338,17.469,9.753,37.795,11.609,56.563,17.914-22.81-1.817-45.325-6.6-68.208-7.863-13.723-2.967-27.78-2.485-41.69-2-5.489-.073-10.979-.038-16.393-.149-33.715-.407-67.431,4.266-100.552,10.164-86.79,16.988-170.427,50.961-243.124,101.515-5.674-.3-11.312-.557-16.912-.855a29.28,29.28,0,0,0-4.228,23.812c-9.458,8.754-21.178,14.985-31.155,23.219-9.717,6.973-17.656,16.43-28.67,21.475,2.485,2.225,4.97,4.414,7.528,6.564-1.557.89-4.637,2.634-6.156,3.524-14.762,17.914-32.01,33.862-44.954,53.261,26.667-23.108,51.332-48.773,79.447-70.36,1.372.52,4.042,1.521,5.378,2,3.56-3.782,7.157-7.492,10.941-11.052,6.417-1.854,11.163-6.64,15.911-11.09l3.153,1c6.491,2.447,13.464,1.854,20.288,1.743,1.781-6.751.706-15.653,7.01-20.141,17.878-12.24,38.61-19.695,55.933-32.823-13.428,4.079-25.519,11.312-37.832,17.839-1.3-.333-3.895-.964-5.192-1.3,67.54-43.988,144.2-74.513,224.207-85.789a86.352,86.352,0,0,1,22.515.038,275.573,275.573,0,0,0-49.478,23.143c6.6.3,13.2.593,19.842.89-23.7,12.906-50.775,17.8-75.292,28.93-21.809,9.271-46.435,18.693-58.564,40.539,18.768.853,37.795-2.931,56.377,1.335-3.227,4.748-8.307,7.492-13.353,9.9-31.972,15.131-61.755,34.344-92.428,51.851-17.8,14.947-36.867,28.335-54.892,43.024-.631,1.668-1.892,5.043-2.56,6.713-3.153,2.818-6.342,5.563-9.569,8.27-9.533.335-12.5,10.461-18.544,15.986-9.5,9.458-19.4,18.544-28.968,27.966,0-3.191.074-9.533.074-12.684-5.119,8.307-10.792,16.319-17.728,23.217-17.989,17.916-32.046,39.427-51.258,56.155-7.308,5.6-8.865,15.318-15.207,21.771-17.8,19.881-35.829,39.8-55.933,57.454-10.384,7.38-21.622,13.426-32.452,20.1,1.3,1.6,3.893,4.748,5.192,6.342-23.33,15.542-43.284,35.421-66.021,51.742-8.27,5.747-16.43,11.72-24.887,17.245-24.034,13.65-46.362,30.043-71.213,42.283-13.055,6.935-26.074,14.5-40.651,17.8-10.681,2.041-19.286,9.2-29.523,12.388-14.5,4.637-29.6,6.935-44.47,10.126-9.5,1.668-17.1,8.345-26.372,10.681-10.941,2.6-22.142,4.006-33.307,5.378-3.746-6.491-5.971-14.947-13.611-17.989,3.189,6.342,6.786,12.389,10.235,18.62a205.868,205.868,0,0,1-18.729-10.015c.89,3.562,2.745,10.756,3.635,14.354-3.488-1-10.5-2.929-13.983-3.931.7,3.227,1.408,6.489,2.114,9.718-7.344-.484-15.282.111-21.142-5.267-7.455-.333-14.909-.446-22.364-.482,3.6,14.836,5.934,30.191,12.462,44.137-4.859-1-12.573-11.387-15.653-3.746,6.342,9.235,18.211,13.017,25.519,21.586-2.487-1.337-7.456-4.081-9.941-5.416,2.634.742-3.56,12.054-4.71,6.009-.631-8.642-5.3-14.836-14.132-16.1-.371,3.338-1.113,10.015-1.483,13.315-.111-2.447-.371-7.381-.482-9.866-10.31-2-11.869-14.019-16.5-21.7-6.231-13.388-13.872-31.6-31.23-31.859-3.6,10.83-7.826,21.511-12.276,32.046-1.485-.593-4.452-1.743-5.973-2.336-4.3-14.021-9.569-27.707-13.834-41.727-21.1-9.124-45.991-13.315-62.273-30.709-15.542-7.01-29.747-16.543-43.544-26.445-5.823-5.713-11.647-11.461-18.136-16.395-.224-.185-.743-.593-.966-.779-8.159-4.71-16.06-10.088-21.363-18.025-3.413-4.488-6.751-9.013-10.275-13.353-16.393-18.991-34.79-36.385-48.032-57.9-17.1-27.594-36.347-56.153-40.056-89.162,16.541,24.478,29.3,51.48,46.622,75.552,12.758,18.544,26.445,37.275,44.879,50.628,2.856,4.932,7.195,12.276,13.87,11.125.928-6.973-7.379-11.09-12.536-14.094-12.8-19.73-28.226-37.646-40.391-57.823-11.423-21.809-27.149-44.062-24.664-69.914,1.928.519,5.823,1.557,7.788,2.076,11.869,13.8,19.435,30.711,28.93,46.14,11.8,19.77,24.22,39.612,40.762,55.784a15.3,15.3,0,0,0,11.685,11.09c-.371-6.231-3.857-12.055-9.941-14.132-3-8.234-7.121-15.986-11.35-23.625,2.485.185,7.492.593,10.015.815-8.456-17.023-17.358-33.789-25.035-51.147,12.2,20.03,22.4,41.5,38.239,59.122q5.23,6.288,10.5,12.537a209.163,209.163,0,0,0,20.028,20.51l2.634,2.447c2.078,1.781,4.228,3.562,6.417,5.342,20.547,17.505,43.877,31.451,68.542,42.394,2.076-7.716-.928-12.462-8.123-14.54,2.114-.779,6.417-2.3,8.531-3.04V992.907c1.779.186,5.414.595,7.195.779.073-3.746.149-11.312.185-15.058.224-2.041.668-6.158.89-8.234,2-5.934,4.266-11.794,6.491-17.654-.89-.928-2.707-2.782-3.6-3.71a174.3,174.3,0,0,0,3.746-24.776l2.189-3c.518-5.527,1.075-11.016,1.706-16.506q4.34-6.619,8.567-13.351c-8.234-5.156-3-14.911-2.856-22.477,3.784-13.686,7.752-27.336,12.871-40.613l1.113-3.264c1.632-5.23,2.929-10.534,4.413-15.8,3.451-13.426,10.534-25.369,17.656-37.127,2.856-4.783,5.563-9.642,8.494-14.39,7.306-8.753,7.084-21.067,13.464-30.378a329,329,0,0,1,57.971-71.1c12.573-8.383,24.071-18.211,36.2-27.262,7.641-10.5,21.846-12.313,30.526-21.809,17.876-13.13,38.461-28.484,61.94-25.555-21.327,17.767-49.775,28.3-64.054,53.483,20.361-11.9,39.685-27.223,63.683-30.822,2.485.817,7.492,2.411,10.015,3.191,2,4.637,1.557,10.2-3.524,12.611-15.058,10.755-32.974,17.432-46.029,31.044,8.754-.853,22.477-10.312,25.258,2.818,2.931-1.446,5.9-2.856,8.829-4.3l.815-.038c15.651.185,29.783-7.53,45.065-9.606-15.022,4.155-29.747,9.42-45.065,12.424-17.172,11.2-34.568,22.4-48.958,37.127-23.367,24.926-42.023,53.967-56.192,85.011-12.054,27.78-25.444,56.08-25.926,87.013-.26,25.7-2.076,52.26,6.713,76.924,1.41,4.228,2.893,8.494,4.081,12.8.667,8.791.853,17.581.779,26.408-.224,6.788-.855,13.612-1,20.436.111,1.188.407,3.562.518,4.748,1.113,7.01,2.449,13.983,3.339,21.031.518,5.86.964,11.72,1.3,17.581,16.395.26,32.083-5.156,48.18-7.6a302.848,302.848,0,0,0,36.534-12.427c4.3-1.632,8.53-3.337,12.871-4.932a186.181,186.181,0,0,0,28.966-12.018c11.016-5.525,21.773-11.5,32.492-17.543a428.2,428.2,0,0,0,87.9-66.539c43.988-40.317,80.076-88.349,111.528-138.828,49.886-65.537,103.592-128.7,165.718-183.038,59.639-54.818,133.115-93.428,210.225-117.277A729.567,729.567,0,0,1,1480.8,454.326Zm-93.985,34.531.371,1.594c-49.069,8.42-95.506,28.264-139.532,50.963-21.846,12.091-44.1,24.034-63.35,40.02-2-.3-6.009-.89-7.974-1.188.964,1.594,2.856,4.785,3.821,6.38a84.088,84.088,0,0,1,25.035-17.692,800.367,800.367,0,0,1,136.3-58.973c15.431-5.527,31.6-8.827,46.475-15.837l-.186-.964a159.573,159.573,0,0,0,31.193-8.42C1408.1,484.591,1397.419,486.818,1386.811,488.857ZM1107.784,631.393c19.324-13.279,37.979-27.6,58.194-39.649C1144.726,601.535,1121.174,611.141,1107.784,631.393Zm-3.746,46.882c-5.712,8.827-15.169,13.315-23.738,18.693-23.441,18.656-40.686,43.506-60.679,65.537-3.413,3.746-5.638,8.345-8.123,12.722,2.041-4.45,5.267-6.194,9.755-5.3.073-1.781.185-5.378.222-7.195,9.087-6.64,13.723-21.811,25.815-22.439l10.905-7.121c-2.856.407-8.6,1.186-11.461,1.594q7.565-8.847,15.724-17.172l-2.447,11.9c17.061-14.5,31.193-32.157,49.071-45.731C1107.376,681.91,1105.708,680.091,1104.038,678.275Zm-97.212,137.789c-22.106,26.852-48.478,49.886-69.4,77.7,15.207-13.687,27.187-30.86,44.472-42.136,34.307-34.6,61.272-75.552,91.945-113.234C1048.4,761.392,1029.747,790.693,1006.826,816.064Zm-433.841,4.45c-2.336,6.269-4.748,12.5-7.528,18.582-5.378,15.986-10.015,32.194-15.244,48.216-.779,6.455-2.041,13.168.593,19.435,5.119-5.081,6.64-12.054,8.42-18.693,1.743-10.348,5.6-20.325,5.341-30.933a256.362,256.362,0,0,1,13.648-24.589c1.892-8.643,5.676-17.061,4.637-26.074C574.544,806.382,575.841,815.471,572.985,820.514ZM896.26,923.921c-8.232,1.519-13.8,8.827-20.177,13.759-32.008,28.337-70.4,47.476-108.042,66.985-10.57,6.6-24.74,8.345-31.415,19.881a54.313,54.313,0,0,0,19.879-6.046c43.359-21.882,86.642-44.656,124.7-75.07,7.27-6.527,17.656-10.719,21.438-20.288,8.272-5.676,18.509-11.536,23.108-20.845C914.917,908.008,905.793,916.354,896.26,923.921ZM545.687,910.828v18.544c-2.485,2.929-4.895,5.9-7.268,8.865.333,11.2.073,22.439-.3,33.678l7.306-.222c.26-17.285,5.378-33.938,7.419-50.963C553.921,915.872,551.176,910.2,545.687,910.828Zm9.9,104.889,1.15.075c-.89,5.378-1.743,10.83-2.782,16.171,1.41-10.719-3.338-20.51-6.38-30.487-1.3,6.527-1.483,13.426-4.526,19.508-.667,8.085-1,16.171-1.63,24.258q11.236.946,22.475,1.632c.371-10.163.89-20.4-.371-30.526l2.078.149c-1.521-8.085.371-17.432-3.3-24.738C554.478,996.691,556.925,1007.818,555.591,1015.717Zm38.128,24.072q5.619,7.345,10.719.224C600.729,1035.116,597.132,1035.078,593.719,1039.789Z" transform="translate(-229.72 -452.601)" fill="#f6852a"/>
      </g>
      <path id="Контур_189" data-name="Контур 189" d="M1030.286,478.949c30.34-1.67,55.486,17.692,79.447,33.567,25.961,12.871,54.336,23.7,76,43.358,4.859,2.114,10.459,3.486,13.945,7.863,6.158,7.788,15.727,11.572,22.626,18.62,37.684,24.107,68.468,58.638,93.763,95.247-10.348-6.937-17.285-17.581-27.187-25-15.913-11.127-27.633-26.89-42.432-39.278-8.272-8.012-19.213-14.094-23.7-25.222-7.528-2.892-17.283-5.117-18.174-14.761a44.676,44.676,0,0,1-19.621-13.2c-22.735-13.019-43.506-29.45-66.983-41.319C1090.409,502.092,1059.847,491.3,1030.286,478.949Z" transform="translate(403.978 -431.826)" fill="#f6852a"/>
      <path id="Контур_190" data-name="Контур 190" d="M922.177,487.622c34.457-4.746,69.247-4.71,103.889-2.261a200.819,200.819,0,0,0,30.489,4.45l.407.038c.595,1.408,1.854,4.264,2.485,5.712-1.112.073-3.338.185-4.45.26-22.477-6.306-46.064-8.049-69.321-8.309-4.377-.111-8.754-.3-13.093-.555-15.615-1.743-31.266.482-46.882.7Z" transform="translate(318.403 -427.963)" fill="#f6852a"/>
      <path id="Контур_191" data-name="Контур 191" d="M1011.467,505.569a205.12,205.12,0,0,1,34.086,6.3,335.252,335.252,0,0,1,118.168,62.534c-4.117-1.261-8.678-1.818-11.943-4.859a121.2,121.2,0,0,0-17.952-11.685c-20.141-11.794-40.837-22.773-62.348-31.9C1052.229,517.178,1032.238,509.908,1011.467,505.569Z" transform="translate(389.081 -410.674)" fill="#f6852a"/>
      <path id="Контур_192" data-name="Контур 192" d="M793.216,544.72c20.03-11.09,39.056-26.3,62.312-29.525-33.122,18.36-66.5,36.609-97.214,58.937l-.371-7.53C771.779,563.153,780.792,551.024,793.216,544.72Z" transform="translate(188.402 -403.055)" fill="#f6852a"/>
      <path id="Контур_193" data-name="Контур 193" d="M907.893,515.92c11.461,1.113,23.292,1.188,34.2,5.267a641.269,641.269,0,0,1,77.035,35.717c7.308,4.563,17.989-2.745,23.516,5.454-21.7,2-40.762-9.422-60.643-15.986C956.813,537.469,931.556,528.457,907.893,515.92Z" transform="translate(307.096 -402.481)" fill="#f6852a"/>
      <path id="Контур_194" data-name="Контур 194" d="M1078.626,516.091c5.23-1.707,14.354,3.264,12.537,9.531C1086.156,527.847,1078.515,521.023,1078.626,516.091Z" transform="translate(442.241 -402.614)" fill="#f6852a"/>
      <path id="Контур_195" data-name="Контур 195" d="M1018.03,544.821c17.692,6.9,32.825,18.842,49.182,28.262,8.9,3.562,17.543,7.974,24.589,14.614-18.767-7.566-35.828-18.544-53.779-27.78C1030.863,555.689,1022.778,551.943,1018.03,544.821Z" transform="translate(394.276 -379.604)" fill="#f6852a"/>
      <path id="Контур_196" data-name="Контур 196" d="M886.892,549.871c9.124-2.56,19.177-.779,28.635-2.152-24.74,8.234-49.255,17.061-73.365,26.927C857.629,567.414,872.873,559.662,886.892,549.871Z" transform="translate(255.066 -377.31)" fill="#f6852a"/>
      <path id="Контур_197" data-name="Контур 197" d="M981.656,545.732a293.829,293.829,0,0,1,30.933,18.211C1000.014,564.09,986.737,557.859,981.656,545.732Z" transform="translate(365.484 -378.883)" fill="#f6852a"/>
      <path id="Контур_198" data-name="Контур 198" d="M1001.468,553.537c30.08,9.864,60.643,20.621,86.828,38.832-.075,4.3-.113,8.6-.113,12.944,5.267.26,12.8-2.225,14.985,4.637,3.191,7.344,12.648,10.051,13.019,18.879-7.344-3.6-14.985-5.971-23.145-4.266a24.329,24.329,0,0,0-8.121-9.717c-.224-2.225-.668-6.64-.89-8.827-3.413-.3-6.826-.595-10.2-.855-.113,1.967-.335,5.86-.446,7.79,10.905,9.533,19.139,21.511,28.3,32.639-1.706.3-5.154.853-6.862,1.15-20.658-12.462-40.575-26.334-62.273-37.053-7.863-3.746-18.027-11.609-13.835-21.549,20.325-2.114,38.128,11.052,57.377,15.651C1055.693,581.02,1025.984,570.56,1001.468,553.537Z" transform="translate(381.166 -372.705)" fill="#f6852a"/>
      <path id="Контур_199" data-name="Контур 199" d="M1123.261,552.915a388.919,388.919,0,0,1,35.346,21.327c1.226,3.784,2.485,7.6,3.711,11.425-2.449-1-7.419-3-9.866-4.006,4.377,17.283,9.607,34.568,10.348,52.555C1152.005,606.028,1140.508,577.877,1123.261,552.915Z" transform="translate(477.573 -373.197)" fill="#f6852a"/>
      <path id="Контур_200" data-name="Контур 200" d="M1069.931,566.777c8.567-1.595,21.253-11.237,26.779,0,6.046,11.127,21.735,20.1,32.305,9.013l1.93,3c7.381,13.277,14.279,26.816,20.956,40.464,2.077,6.047,3.189,12.315,4.672,18.509a479.785,479.785,0,0,0-51.665-37.2c-.186-4.561-.335-9.123-.446-13.648-3,1.854-5.933,3.746-8.865,5.638C1086.621,584.692,1072.9,579.314,1069.931,566.777Z" transform="translate(435.359 -366.473)" fill="#f6852a"/>
      <path id="Контур_201" data-name="Контур 201" d="M1093.077,565.629l2.447-1.41c.593,1.372,1.817,4.044,2.411,5.378l-2.485,1.372Z" transform="translate(453.68 -364.249)" fill="#f6852a"/>
      <g id="Сгруппировать_40" data-name="Сгруппировать 40" transform="translate(1636.366 209.614)">
        <path id="Контур_202" data-name="Контур 202" d="M1153,569.6c14.429,11.09,30.786,19.546,43.879,32.417a19.577,19.577,0,0,0,15.318,6.491c1.483,4.339,1.557,10.533,6.973,12.165,11.461,4.377,18.656,14.651,27.076,23-3.042.222-9.162.666-12.24.889,20.621,12.722,35.161,33.382,47.326,53.93,13.39,9.013,21.66,23.181,31.713,35.421,7.306,8.272,9.42,19.286,12.573,29.523,2-.26,5.934-.815,7.937-1.075,8.976,16.764,22.144,30.858,30.562,47.957,13.761,25.3,30.005,50.257,36.052,78.741,7.6,11.98,8.272,26.445,9.755,40.169,8.419,7.381,9.755,18.842,12.313,29.117,9.68,45.583,6.675,93.874-9.94,137.491-1.558,1-4.6,3-6.12,4.006-1.965,6.009-6.9,11.534-6.38,18.1,12.722,21.178,26.667,42.207,33.973,66.019a435.469,435.469,0,0,0-36.05-63.794,142.311,142.311,0,0,1-18.842,20.4c-16.395-16.542-32.936-33.121-51.556-47.141,1.483-2.41,4.488-7.268,5.971-9.68a105.524,105.524,0,0,0,23.96,16.1c-8.345-12.833-20.177-22.7-30.858-33.418a1037.433,1037.433,0,0,0-81.747-70.842c-5.563-4.561-12.351-7.084-18.766-10.015-.89-1.037-2.634-3.116-3.486-4.153-13.909-13.686-32.046-21.846-47.252-33.864,19.99,3.153,35.532,16.8,49.4,30.526q6.452,5.283,12.684,10.9c19.954,12.5,39.687,25.481,58.009,40.317,20.918,20.361,45.026,37.46,63.756,60.085,6.083,6.564,10.868,15.467,20.214,17.84-4.6-20.066-21.882-32.9-37.979-43.73.593-5.414,1.224-10.792,1.854-16.171-4.6-4.6-9.125-9.235-13.464-14.019,4.637,3.486,9.16,7.046,13.834,10.606,1.446-26.184-5.045-51.7-11.609-76.775,12.944,10.5,25.517,21.4,38.35,32.046-13.834-15.5-31.044-27.52-44.73-43.1l-.26-.779c-2.448-10.089-5.674-19.954-9.087-29.71,6.453,4.23,14.132,5.454,21.7,6.344-11.5-21.957-32.194-35.94-51.407-50.406-15.207-25.333-38.461-44.47-60.9-63.09-16.728-14.392-37.944-23.292-52-40.688-9.5-11.5-19.139-22.848-30.414-32.639a231.642,231.642,0,0,0,17.023-31.266c11.907,12.611,23.516,25.592,36.5,37.164-3.191-4.637-6.455-9.162-9.718-13.65q.11-4,.333-7.9a172.846,172.846,0,0,0-22.772-27.6c.147-.668.482-1.93.629-2.56,8.68,6.455,17.4,12.908,25.928,19.621l-.78-10.051c21.476,22.291,40.316,46.917,59.417,71.249a75.681,75.681,0,0,0,17.285,15.689,239.826,239.826,0,0,0-16.284-19.917c-.149-1.892-.444-5.6-.593-7.455-18.731-21.884-37.275-44.137-59.381-62.681l-2.523,7.306c-6.749-7.9-13.723-15.578-20.807-23.143C1177.476,649.493,1167.981,607.508,1153,569.6ZM1271.5,801.71c0,10.941,7.6,19.361,13.277,28,12.611,16.914,23.478,35.274,29.672,55.6,5.973,9.087,7.159,24.553,18.917,27.3C1317.157,873.478,1298.055,834.906,1271.5,801.71Z" transform="translate(-1143.094 -569.602)" fill="#f6852a"/>
      </g>
      <path id="Контур_203" data-name="Контур 203" d="M1114.4,573.825c2.893.038,8.716.149,11.609.186,9.94,19.435,19.064,40.613,18.063,62.941A318.331,318.331,0,0,0,1114.4,573.825Z" transform="translate(470.559 -356.645)" fill="#f6852a"/>
      <path id="Контур_204" data-name="Контур 204" d="M1064.166,584.676c6.009-3.3,17.618,6.528,10.052,11.425C1069.509,594.988,1063.351,589.832,1064.166,584.676Z" transform="translate(430.738 -348.581)" fill="#f6852a"/>
      <path id="Контур_205" data-name="Контур 205" d="M1077.3,598.208c7.6-.964,14.538-4.6,22.068-6.082,22.884,17.507,46.844,33.6,69.394,51.556,1.448,16.022-10.051,29.226-17.172,42.616-30.525-19.139-58.935-41.356-88.423-61.94.26-2.078.817-6.158,1.113-8.2,1.224-1.261,3.635-3.746,4.859-4.97-1.743-1.039-5.192-3.078-6.935-4.117-1.854-2.558-5.489-7.677-7.344-10.2l6.156.3c30.6,23.663,62.83,45.138,94.505,67.391C1133.563,638.155,1104.746,618.46,1077.3,598.208Z" transform="translate(423.429 -342.159)" fill="#f6852a"/>
      <g id="Сгруппировать_41" data-name="Сгруппировать 41" transform="translate(1028.76 485.178)">
        <path id="Контур_206" data-name="Контур 206" d="M1042.508,743.492c35.643-13.017,73.549-17.283,111.157-19.879,38.352-1.41,76.331,4.97,114.2,9.977,2.56.185,5.156.482,7.79.779,14.985,3.486,29.894,7.863,45.4,8.234,2.6,2.447,5.266,4.895,8.01,7.268l3,2.633c4.377,1.448,8.865,2.56,13.39,3.746,6.675,7.455,13.093,15.282,17.469,24.369-24.962-6.455-50-12.648-75.367-17.321,32.64,6.824,62.312,22.439,93.021,34.79-2.039-4.341-4.117-8.6-6.267-12.835-5.3-8.381-12.722-15.54-16.1-25.035,11.5,1.521,22.068,6.566,32.563,11.276,5.045,5.043,9.384,10.83,11.758,17.692a150.752,150.752,0,0,1-26.705-4.414c1.559,3.339,4.674,9.977,6.231,13.317,18.953,10.422,39.018,18.766,57.49,30.116-12.165-3.857-24.034-8.567-35.792-13.464-.406,1.3-1.186,3.968-1.557,5.3-.482-1.557-1.372-4.71-1.854-6.267-27.409-10.794-55.338-20.4-83.972-27.484,4.6,6.009,9.458,11.907,14.465,17.58,20.807,4.821,40.428,13.612,59.343,23.4,3.746,2.633,7.455,5.416,11.239,8.161-9.013-4.079-18.62-6.491-27.6-10.534-12.276-6.935-25.591-11.756-38.683-16.95,4.042,5.935,8.234,11.833,12.424,17.694l8.456,1.928c3.857,2.893,7.641,5.9,11.832,8.494.075,1.483.224,4.45.3,5.971-.038.742-.111,2.263-.149,3.042a68.862,68.862,0,0,0-21.586-17.469c-6.083-11.127-16.5-18.917-28.078-23.627,3.3-8.307-3.338-14.614-7.714-20.807a81.136,81.136,0,0,1-27.187-3.746,404.212,404.212,0,0,0-93.874-14.909c-31.9-3.191-63.943.815-95.506,5.081-8.01,2.225-18.4,1.632-23.441,9.42,12.8-2.187,25.11-7.6,38.352-6.935-14.725,8.754-33.009,7.381-48.96,13.093,2.969-2.6,5.9-5.23,8.829-7.9-19.064,1.336-36.571,9.459-54.523,15.244.371,1.818,1.075,5.489,1.446,7.344-14.612,4.081-28.262,10.868-41.281,18.509-14.317,8.048-30.673,11.943-44.284,21.251-17.767,12.24-35.31,25.037-50.108,40.837,8.789-7.195,17.468-14.54,26.37-21.549-.038,1.408-.149,4.228-.222,5.636,2.039-9.382,12.611-8.232,19.4-12.091,14.725-7.491,27.52-18.582,43.247-24.145-12.869,10.681-28.373,18.36-38.721,31.824-.519,7.084-7.937,10.273-12.389,14.836a555.772,555.772,0,0,0-69.024,63.385,341.665,341.665,0,0,0-44.805-10.422c9.941-15.8,19.4-32.046,31.379-46.4a316.912,316.912,0,0,1,49-43.951c17.728-12.462,34.382-26.334,51.962-39.018,3-1.892,6.082-3.784,9.16-5.6C976.265,773.721,1008.459,756.289,1042.508,743.492Zm11.09,13.539c21.364.073,41.948-6.788,63.312-7.232,34.568-1.483,69.358-1.892,103.778,2.076,5.638,1.41,10.051-3.227,14.576-5.749C1174.807,735.889,1112.533,740.563,1053.6,757.031Zm-70.025,21.882c17.692-3.671,34.6-10.644,52.074-15.429C1017.508,763.411,997.331,766.007,983.572,778.913Z" transform="translate(-803.945 -723.414)" fill="#f6852a"/>
      </g>
      <path id="Контур_207" data-name="Контур 207" d="M1090.089,761.576c44.916-7.827,91.092-5.118,135.711,3.449,12.759,2.967,26.074,4.932,37.684,11.461-14.39,1.706-28.855,2.263-43.209,4.266,3.226,2.077,9.606,6.194,12.8,8.234-20.363.779-40.687-.52-60.976-1.892-19.324.779-40.8.742-56.413,13.872,13.946,7.268,29.783,11.126,41.985,21.438-41.614,6.675-84.75,9.606-123.546,27.409-13.834,3.486-23.441,15.429-37.386,18.4-11.35,8.2-23.516,15.133-35.05,23.034.371-2.56,1.113-7.641,1.483-10.2-22.848,19.472-48.18,35.792-71.137,55.08-19.51-8.791-39.687-15.913-60.012-22.55,19.992-21.7,40.688-42.84,63.35-61.718,8.678-5.824,17.246-11.685,24.738-18.991-1.89-1.41-3.746-2.782-5.6-4.192,27.855-15.467,55.042-34.271,87.013-39.907,28.264-8.123,56.748-16.1,86.271-18.211-16.133-1.67-32.046,1.779-47.994,3.6C1055.967,767.807,1073.1,764.727,1090.089,761.576Z" transform="translate(247.036 -211.699)" fill="#f6852a"/>
      <path id="Контур_208" data-name="Контур 208" d="M1003.041,802.134c14.762-5.3,31.49-8.012,44.545,2.818C1032.9,802.356,1017.914,802.578,1003.041,802.134Z" transform="translate(382.411 -179.599)" fill="#f6852a"/>
      <path id="Контур_209" data-name="Контур 209" d="M1173.154,817.97c13.242,9.42,25.963,19.546,38.945,29.337a147.829,147.829,0,0,1,24.478,24.369c-20.658-15.764-40.762-32.305-62.124-47.141C1174.118,822.9,1173.487,819.6,1173.154,817.97Z" transform="translate(517.066 -163.39)" fill="#f6852a"/>
      <path id="Контур_210" data-name="Контур 210" d="M460.66,829.915c5.676,2.411,12.278,5.489,13.761,12.2,4.9,14.021,10.534,27.966,19.324,40.1,4.6,5.785,1.929,13.759,2.189,20.547-17.916-1.41-26.039-21.586-38.13-32.565,1.93,18.138,10.683,34.531,20.065,49.813,3.857,4.635,7.752,9.271,11.5,14.019-23.255-17.135-41.206-41.8-51.443-68.69,2.152-.111,6.527-.333,8.716-.444,1.594-9.162,17.765-7.752,10.941-19.732,2.225.519,6.639,1.595,8.827,2.114-.036-3.524-.036-7.048-.073-10.534C464.926,835.033,462.07,831.621,460.66,829.915Z" transform="translate(-64.913 -153.934)" fill="#f6852a"/>
      <path id="Контур_211" data-name="Контур 211" d="M434.737,836.354A18,18,0,0,1,448.5,850.188c-4.377-.408-8.716-.779-13.017-1.188C435.181,844.773,434.959,840.582,434.737,836.354Z" transform="translate(-67.436 -148.837)" fill="#f6852a"/>
      <g id="Сгруппировать_42" data-name="Сгруппировать 42" transform="translate(1738.252 716.447)">
        <path id="Контур_212" data-name="Контур 212" d="M1242.358,852.5a65.15,65.15,0,0,0,12.611,8.2c-1.856,6.973,4.97,11.645,11.312,10.533,22.18,14.947,42.283,32.787,64.127,48.18-2,5.971-5.971,10.681-10.606,14.725,1,27.483,3.522,55.522-2.56,82.6l4.3,7.568c-2,1.928-5.973,5.823-7.938,7.75-.631.557-1.854,1.67-2.485,2.227-.333,5.192-.482,10.459-.853,15.651-5.267,12.313-10.421,24.7-16.505,36.607-17.616-54-33.38-109.006-60.9-159.078-.482,2.893-1.372,8.642-1.818,11.536-7.788-6.862-14.019-15.133-19.546-23.812,7.084-.111,14.17-.222,21.327-.371-3.486-8.42-6.862-16.877-10.237-25.295a198.459,198.459,0,0,1-22.624-9.5c6.786,2.076,13.315,4.413,20.1,6.786q-3.838-13.351-7.12-26.741c15.614,15.207,24.96,34.939,34.493,54.152,2.558-.3,7.6-.928,10.126-1.225q3.5-9.736-6.417-11.72c-.111-1.965-.3-5.823-.371-7.788-3.486-.52-10.422-1.559-13.908-2.076,6.156-1.743,12.387-3.3,18.618-4.934,12.722,10.941,25.333,21.995,37.386,33.64-4,4.859-2.818,6.491,3.635,4.934,5.007,3,10.015,6.045,15.1,9.049-16.542-24.109-41.355-40.575-63.645-58.787C1244.954,868,1243.655,860.179,1242.358,852.5Zm10.384,85.12c1.448,6.935,7.381,7.084,13.13,6.973-.333-4.228-.631-8.456-.964-12.611Zm43.025,6.64c-2.3,4.339-2.41,11.609,1.854,14.836,5.86-.52,4.414-9.533,3.486-13.5ZM1260.6,958.949c1.521,5.749,3.191,11.423,5.045,17.1,5.118-4.488,2.3-12.129,3.226-18.027C1266.8,958.244,1262.683,958.727,1260.6,958.949Z" transform="translate(-1199.964 -852.502)" fill="#f6852a"/>
      </g>
      <g id="Сгруппировать_43" data-name="Сгруппировать 43" transform="translate(800.658 758.283)">
        <path id="Контур_213" data-name="Контур 213" d="M868.528,875.854c9.977,1,19.99,1.224,30.043,1.3a61.541,61.541,0,0,1-8.087,16.244c-20.7,29.412-33.9,63.054-48.549,95.655-7.826,17.507-9.384,36.793-8.791,55.746.855-.038,2.56-.073,3.413-.111.3-18.36,4.674-36.236,10.534-53.521a393.732,393.732,0,0,1,58.118-109.674c18.471,5.489,35.57,14.761,54.3,19.546l-1.67,4.266c-.3,12.536-10.867,20.585-16.357,30.933-12.462,21.438-25.777,42.838-32.934,66.761-7.27,24.553-14.54,49.626-12.426,75.516,20.141,8.159,42.691,23.4,64.684,13.055-7.937-16.283-21.66-29.709-25.591-47.81a785.76,785.76,0,0,1,77.815,35.31c18.211,26.445,40.28,50,57.6,77.073-1.892,1.039-5.638,3.116-7.53,4.155,7.6,11.2,15.726,22.068,24.109,32.75-32.157-22.366-55.562-54.671-85.382-79.742-4.6-3-9.569-8.161-15.578-5.936-2.187,11.165,5.343,20.7,11.314,29.263,14.687,19.288,31.6,36.758,48.885,53.707-8.791-4.377-17.8-8.2-26.669-12.315-19.954-19.359-39.649-39.054-61.123-56.746,4.859,11.163,10.162,22.327,18.322,31.526-11.647-5.229-22.661-11.684-33.864-17.767a208.276,208.276,0,0,0,47.734,32.268c1.372,1.337,2.782,2.709,4.192,4.117-24.553-7.937-45.769-23.292-69.692-32.75,17.21,19.881,38.981,35.57,62.719,46.771a91.769,91.769,0,0,1,18.211,10.979c5.86,2,11.721,3.895,17.617,5.934,9.83,3.673,19.732,7.939,30.489,7.939,3.931.111,7.863.26,11.832.444,23.4,13.464,51.48,4.339,77,6.491-19.4-21.253-42.689-38.61-62.124-59.864,3.968,2.411,7.974,4.785,12.054,7.122.222-4.859.444-9.644.63-14.465,5.007,1.261,10.051,2.485,15.1,3.673-2.3-6.12-4.71-12.2-7.419-18.138,1.448-.482,4.3-1.483,5.713-1.965,3.375,7.863,11.274,7.6,18.433,7.344,3.04-4.934,6.193-9.828,9.309-14.725,6.64,2.745,13.426,5.527,19.1,10.126a49.73,49.73,0,0,1,19.249,3.931c-3.819,1.781-7.639,3.524-11.423,5.378,21.327,7.27,43.322,13.02,63.239,23.887,6.6-4.637,14.5-2,21.7-.779,23.07,4.9,47.29,3.82,69.1,14.019-.037-2.263-.111-6.713-.149-8.938a310.638,310.638,0,0,0,35.235.186l-2.336-4.081c16.43,12.388,34.011,23.145,51.332,34.308a327.653,327.653,0,0,0,6.64,33.678c-2.856,4.748-5.749,9.5-8.308,14.5l-.408-4.341c-27.225,7.2-55.6,6.491-83.342,8.829.557,1.3,1.67,3.931,2.225,5.229,27,3.264,53.743-2.449,80.375-6.306,9.791,6.047,7.677,19.028,10.9,28.781-31.637,9.941-64.127,16.357-96.544,22.959-4.97-8.048-9.977-16.022-15.244-23.848,4.006,7.528,9.9,14.947,9.087,24l-3.486.78c-16.171-8.085-18.136-31.935-35.05-40.577,1.448,17.061,12.684,30.674,19.77,45.658-16.135-6.416-20.325-26.481-31.972-38.277,1.781,9.569,6.158,18.285,10.83,26.779l-6.231-3.449c-13.464-7.159-25.963-15.949-38.61-24.369-12.166,1.3-24.369.706-36.5.038-1.856,7.455-9.866,2.152-14.5,3-22.291-1.039-44.694.409-67.058-.409,6.973,6.826,13.908,13.835,22.031,19.361-35.94-9.5-71.138-21.7-107.189-30.711-38.5-8.418-75.663-23.07-108.97-44.21-40.391-22.366-79.669-46.584-120.024-69.061-22.1-11.052-44.581-23.738-69.394-26.965a172,172,0,0,1-17.989-18.4c31.675-12.091,63.5,7.232,94.5,11.683-8.789-3-17.8-5.638-25.777-10.534a169.994,169.994,0,0,0-90.2-26.481q-1.5-1.835-2.893-3.673c48.514-5.3,96.768,8.9,139.013,32.046,4.413,2.82,8.494,6.269,12.684,9.458-8.976-12.573-8.048-29.188-11.647-43.766q-9.79-5.117-19.435-10.384c6.12.52,12.24,1.15,18.4,1.817a402.742,402.742,0,0,1,12.313-96.248c10.088-32.454,23.181-63.794,37.275-94.689Zm-70.1,252.173c13.686,13.576,31.675,21.624,47.623,32.159-4.934-7.9-7.27-19.881-17.84-21.846C817.825,1136.188,808.554,1130.885,798.428,1128.027Zm348.272,10.126.335,1.67c3.635.7,10.83,2.076,14.427,2.782C1162.651,1136.967,1150.633,1136.374,1146.7,1138.153ZM1074.08,1230.4c-.149.779-.444,2.374-.593,3.153,30.858,5.156,62.422,4.45,93.539,2.225-4.71-4.079-8.789-11.385-16.1-10.051C1125.3,1227.168,1099.819,1231.4,1074.08,1230.4Zm120.208,19.621c30.933,5.749,62.126,13.279,93.726,11.98,5.86-3.189,13.65-1.445,18.879-5.9-8.087-.222-16.208.075-24.258.371-.149-1.521-.482-4.524-.666-6.045l-.149,5.86c-7.01-1.929-19.064,3.782-22.515-4.266-18.618-3.895-37.646-4.71-56.264-8.531C1200.073,1245.64,1197.181,1247.829,1194.288,1250.016Zm-110.231,6.713c11.127,6.566,24.4,6.862,36.867,8.68-1.594,1.966-4.748,5.86-6.342,7.788,16.8,1.818,33.862,4.228,50.7,2.114,13.13-4.117,26.78-.853,40.133-.26,2.261-2.485,4.488-4.97,6.713-7.417a242.422,242.422,0,0,1-24.629-17.248C1153.3,1256.692,1118.625,1256.21,1084.057,1256.729Z" transform="translate(-676.625 -875.854)" fill="#f6852a"/>
      </g>
      <path id="Контур_214" data-name="Контур 214" d="M1199.053,907c7.268-.038,14.538-.073,21.882-.073,1.261,3.449,2.56,6.935,3.822,10.459-7.492-.742-14.949-1.559-22.366-2.634C1201.241,912.159,1200.128,909.561,1199.053,907Z" transform="translate(537.567 -92.973)" fill="#f6852a"/>
      <path id="Контур_215" data-name="Контур 215" d="M1227.121,935.643c15.207,43.062,26.667,88.087,28.893,133.856-8.159,2.56-13.353,11.425-14.427,19.584-1.559.3-4.748.853-6.342,1.112,2.929-44.248-8.68-87.754-20.623-129.961l3.933-.149C1221.334,951.925,1223.93,943.691,1227.121,935.643Z" transform="translate(549.89 -70.244)" fill="#f6852a"/>
      <path id="Контур_216" data-name="Контур 216" d="M1265.014,958.478a368.474,368.474,0,0,1,14.8,77.888c1.15,23.07,2.114,50.294-14.725,68.357-15.245,6.935-32.528,3.153-48.181-.186,0-2.188.038-6.491.038-8.641-26.965-4.525-53.075-13.5-77.7-25.3,4.266-1.63,8.567-3.262,12.908-4.783,10.422-13.2,25.444-21.1,38.759-30.933,20.956-14.316,39.352-31.9,56.672-50.368,7.492,28.744,12.8,58.564,10.423,88.347-1.336,8.012-1.448,18.249-9.051,23.181-7.233,1.521-14.725,1.113-22.031,1.448l.26,4.45c11.683.222,23.7,3.857,35.272.779,7.714-5.007,8.976-14.651,10.533-22.921,4.785-37.87-4.228-75.59-13.464-112.086C1260.9,965.413,1263.642,960.776,1265.014,958.478Z" transform="translate(490.224 -52.169)" fill="#f6852a"/>
      <path id="Контур_217" data-name="Контур 217" d="M869.344,993.713c21.551,4.266,41.394,13.91,61.273,22.885a45.439,45.439,0,0,0,17.283,4.266c1.372,2.039,4.192,6.082,5.6,8.123-3.339,2.6-6.64,5.117-10.015,7.6.853,4.375,1.743,8.752,2.707,13.129a83.976,83.976,0,0,0-16.357-9.087c1.707,6.529,3.562,13.019,5.565,19.546-5.565-6.12-12.018-11.461-20.883-10.608C898.645,1031.656,881.808,1014.336,869.344,993.713Z" transform="translate(276.582 -24.278)" fill="#f6852a"/>
      <path id="Контур_218" data-name="Контур 218" d="M918.472,1014.16c4.079-.335,8.27-.52,12.424-.779-.52,4.748,3.931,11.35-.817,14.836C922.7,1027.846,920.993,1019.463,918.472,1014.16Z" transform="translate(315.47 -8.71)" fill="#f6852a"/>
      <path id="Контур_219" data-name="Контур 219" d="M1140.478,1038.907c25.7,16.912,55.709,25.888,85.864,30.933a158.463,158.463,0,0,0-15.244,12.944c-2.114-.3-6.306-.89-8.383-1.186a444.273,444.273,0,0,1-56.117-21.067l2-5.86c2.411.63,7.306,1.928,9.717,2.6-6.156-2.967-12.351-5.824-18.433-8.865Z" transform="translate(490.732 11.496)" fill="#f6852a"/>
      <path id="Контур_220" data-name="Контур 220" d="M1101.136,1070.955c2.818,1.148,5.563,2.448,8.307,3.893l-3.116,12.908-2.3.333A46.777,46.777,0,0,1,1101.136,1070.955Z" transform="translate(460.049 36.864)" fill="#f6852a"/>
      <path id="Контур_221" data-name="Контур 221" d="M1103.2,1081.818l2.189-.222c.408,10.013,1.186,20.066,1.892,30.079l-4.934-2.261A263.677,263.677,0,0,0,1103.2,1081.818Z" transform="translate(461.021 45.287)" fill="#f6852a"/>
    </g>
    <g id="Сгруппировать_46" data-name="Сгруппировать 46" transform="translate(515.079 143.227)">
      <path id="Контур_222" data-name="Контур 222" d="M1040.43,505.072c5.749,1.892,11.794,3.709,17.951,2.558a142.923,142.923,0,0,1,16.024,11.944A116.756,116.756,0,0,1,1040.43,505.072Z" transform="translate(-94.899 -505.072)" fill="#dab998"/>
      <path id="Контур_223" data-name="Контур 223" d="M805.93,550.011c12.313-6.527,24.4-13.759,37.832-17.839C826.44,545.3,805.708,552.755,787.83,565c-6.3,4.488-5.23,13.39-7.01,20.141-6.824.111-13.8.7-20.288-1.743,9.013.073,7.6-7.53,7.195-14.058,4.377,1.892,8.272,8.123,13.612,4.192a36.867,36.867,0,0,0,1.039-12.908c5.6-4.191,11.239-8.307,17.023-12.238l1.336.333C802.035,549.047,804.631,549.677,805.93,550.011Z" transform="translate(-316.456 -483.621)" fill="#dab998"/>
      <path id="Контур_224" data-name="Контур 224" d="M1024.786,705.941c-25.777-34.419-46.213-73.586-55.635-115.721,6.306,14.021,11.276,28.635,18.138,42.394,16.617,25.926,30.673,53.372,50.035,77.519,12.536,17.172,25.331,34.16,39.389,50.108,1.261,1.668,3.782,5.081,5.043,6.786,20.141,22.7,38.166,47.328,59.084,69.285,1.039.889,3.042,2.632,4.044,3.486-2.634-.3-5.23-.595-7.79-.779-19.324-24.48-41.688-46.289-62.051-69.84-3.708-4.414-7.27-8.9-10.756-13.426C1050.823,739.36,1037.1,723.227,1024.786,705.941Z" transform="translate(-151.321 -437.671)" fill="#dab998"/>
      <path id="Контур_225" data-name="Контур 225" d="M1061.195,687.233c16.8,15.986,30.9,34.568,46.362,51.853,13.872,16.615,27.78,33.232,42.578,49.069,1.113.185,3.339.52,4.452.7,3.375,9.5,10.792,16.654,16.1,25.035-3.859-1.595-7.53-3.227-11.387-4.635-4.377-9.087-10.794-16.914-17.469-24.369-4.525-1.186-9.013-2.3-13.39-3.746l-3-2.633,4.192,1.483,7.863-.742c-11.685-12.462-22.328-25.815-33.864-38.424C1089.159,723.249,1073.657,706.335,1061.195,687.233Z" transform="translate(-78.463 -360.88)" fill="#dab998"/>
      <path id="Контур_226" data-name="Контур 226" d="M652.118,729.782c6.38-4.932,11.944-12.24,20.177-13.759l6.38-.779c-3.782,9.569-14.168,13.761-21.438,20.288-38.055,30.414-81.337,53.188-124.7,75.07a54.314,54.314,0,0,1-19.879,6.047c6.675-11.536,20.845-13.279,31.415-19.881C581.722,777.259,620.11,758.12,652.118,729.782Z" transform="translate(-512.661 -338.708)" fill="#dab998"/>
      <path id="Контур_227" data-name="Контур 227" d="M921.37,768.725c17.951-5.785,35.459-13.908,54.523-15.244-2.931,2.671-5.86,5.3-8.829,7.9-14.316,6.158-29.263,10.608-44.248,14.687C922.445,774.215,921.741,770.544,921.37,768.725Z" transform="translate(-189.143 -308.441)" fill="#dab998"/>
      <g id="Сгруппировать_45" data-name="Сгруппировать 45" transform="translate(207.985 514.621)">
        <path id="Контур_228" data-name="Контур 228" d="M1511.133,792.319c3.451,3.3,6.862,6.715,10.313,10.126l.519.038c4.895,6.491,10.124,12.8,15.54,18.878,9.9,11.425,19.546,23.07,28.484,35.274,11.462,15.02,22.328,30.487,33.047,46.065a639.966,639.966,0,0,1,51.445,95.024c1.075,2.558,2.188,5.156,3.338,7.752,8.642,22.55,17.951,44.914,24.553,68.208,11.943,42.207,23.552,85.714,20.623,129.962-1.929,17.767-5.416,38.574-21.586,49.182-13.5,8.9-30.08,16.319-46.473,12.2-30.155-5.045-60.161-14.021-85.864-30.933-33.973-17.1-66.872-36.163-99.994-54.782,11.685,8.309,25.222,14.021,35.643,24.109,18.471,17.359,40.8,29.783,63.758,40.169,6.083,3.04,12.278,5.9,18.433,8.865-2.411-.668-7.306-1.965-9.717-2.6-17.8-4.415-33.64-20.363-52.668-16.246-9.383-4.859-18.433-10.237-28.04-14.576,11.536,12.351,28.708,16.1,43.4,23.33,12.946.555,23.738,8.418,35.31,13.352a444.287,444.287,0,0,0,56.117,21.067c2.041.556,6.12,1.706,8.161,2.261.333,2.893,1.037,8.6,1.408,11.5-1.224.595-3.671,1.854-4.895,2.485,15.651,15.691,30.674,32.121,45.991,48.181l1.186,6.416a35.493,35.493,0,0,1-14.279-3.486c-12.649,6.046-26.743,1.448-39.76-.518-3.264-13.317,8.456-17.358,19.1-14.949.224-1.928.706-5.747.928-7.677-5.3.222-10.57.444-15.8.631-9.311,5.081-12.129,14.65-13.761,24.4-13.537-5.229-26.483-12.053-40.8-15.02-22.18-5.23-43.06-14.317-63.239-24.665,2.374-.779,7.121-2.263,9.5-3-5.9-2.709-11.832-5.267-17.692-7.938-2.745-1.446-5.489-2.745-8.308-3.893-13.019-5.9-25.073-13.65-37.2-21.142-17.321-11.163-34.9-21.92-51.332-34.309-14.465-14.725-34.568-20.918-50.257-33.862-37.015-27.744-76.4-53.67-104.26-91.427.149,3.226.408,9.606.519,12.8-23.736-23.478-50.812-43.135-76.887-63.831-40.613-31.824-85.529-57.749-132-80.042-8.642-4.375-16.468-10.755-26.223-12.536-18.731-4.785-35.829-14.057-54.3-19.546a393.733,393.733,0,0,0-58.118,109.674c-5.86,17.285-10.237,35.161-10.534,53.521-.853.038-2.558.073-3.413.111-.593-18.953.966-38.239,8.791-55.746,14.65-32.6,27.853-66.243,48.549-95.655a61.542,61.542,0,0,0,8.087-16.244c-10.052-.075-20.065-.3-30.043-1.3-43.062-6.6-87.792-7.159-129.482,7.084-22.142,7.455-43.135,19.621-58.9,37.053-7.752,9.5-16.172,18.62-22.552,29.115-7.268,17.581-9.606,37.053-9.271,55.97,2.6,9.791,6.64,19.175,7.677,29.375,2.189,16.208,11.312,30.376,20.623,43.469q1.389,1.838,2.893,3.673c7.195,8.383,14.39,16.839,21.474,25.333a171.978,171.978,0,0,0,17.989,18.4c22.328,19.992,47.772,36.089,69.914,56.3l1.336,3.708c-61.458-32.936-118.354-79.336-150.289-142.574,17.8,58.9,67.651,99.958,113.531,137.567,5.489,5.749,16.1,10.719,13.577,20.252-17.767-5.713-33.382-16.172-48.254-27.114-36.72-27.224-67.356-62.237-90.612-101.515,6.084,19.4,16.877,36.98,27.966,53.93-2.447-.446-7.419-1.372-9.866-1.818,29.041,46.882,75.441,78.148,118.354,110.935-50.85-34.047-99.661-73.585-134.116-124.806-26.7-39.2-43.508-86.531-38.907-134.451,2.188-40.577,22.031-77.592,48.438-107.6,20.771-10.348,39.316-24.331,57.192-38.945l1.41-.926c.333-.224,1.075-.706,1.41-.966,9.569-8.53,22.773-9.753,34.382-13.981C807.465,868.02,844.7,865.683,881.385,866.5a404.574,404.574,0,0,1,61.235,6.9,341.653,341.653,0,0,1,44.805,10.422c1.372.446,4.117,1.3,5.489,1.745,20.325,6.638,40.5,13.759,60.012,22.55a1050.842,1050.842,0,0,1,186.079,105.224c50.59,36.163,102.628,70.285,156.445,101.478,12.167,6.824,24.331,13.723,36.089,21.289.853,19.657,3.746,39.167,4.006,58.862-8.42-6.935-17.8-12.424-26.78-18.508-43.1-28.67-82.784-62.2-126.513-89.906,20.734,16.988,43.655,31.23,62.83,50.11,18.99,15.54,39.575,29.077,59.863,42.876,20.4,13.87,41.243,27.26,62.979,39.019-6.009-9.829-16.95-14.354-26.779-19.25-1.224-18.249-2.56-36.533-2.225-54.818h5.23c2.447,1.521,7.344,4.6,9.791,6.12,4.934,3.151,9.755,6.491,14.651,9.753,23.959,15.615,48.328,30.673,74.735,41.763,24.629,11.8,50.739,20.772,77.7,25.3,0,2.15-.038,6.453-.038,8.641,15.653,3.34,32.936,7.121,48.181.186,16.839-18.063,15.875-45.287,14.725-68.357A368.474,368.474,0,0,0,1669.1,1090c-7.75-30.192-22.253-57.676-34.79-86.011,8.309,32.157,21.957,62.755,29.3,95.246,9.235,36.5,18.249,74.215,13.464,112.086-1.557,8.27-2.818,17.914-10.533,22.921-11.572,3.078-23.589-.557-35.272-.779l-.26-4.45c7.306-.335,14.8.073,22.031-1.448,7.6-4.932,7.714-15.169,9.051-23.181,2.374-29.783-2.931-59.6-10.423-88.347-17.061-63.387-39.909-125.771-74.142-182.037-10.646-18.36-22.921-35.681-34.864-53.224-6.714-10.348-13.168-21.216-15.1-33.6,14.465,5.676,23.106,19.213,32.49,30.784,6.3,7.605,12.054,18.027,23.33,18.027-9.309-15.578-19.435-30.673-29.969-45.4-7.937-10.905-16.022-21.7-23.848-32.676-4.341-5.86-9.089-11.387-13.947-16.764C1514.508,798.921,1512.246,794.508,1511.133,792.319ZM857.018,889.384q.277,6.232.555,12.573c2.189,1.706,4.414,3.413,6.64,5.156-.111-5.527-.222-11.016-.333-16.506,3.04.333,9.16,1.039,12.2,1.41-.222-2.041-.631-6.082-.853-8.085C868.59,884.043,861.319,883.264,857.018,889.384ZM885.651,909c.335,3.191,1,9.571,1.335,12.8-3.116-.3-9.382-.928-12.5-1.224l.3,8.01,12.091-.333c2.114-2.3,4.266-4.6,6.417-6.9.111-3.931.222-7.863.371-11.756Zm157.966,11.127,2.078,4.748c71.508,33.38,136.379,79.3,196.613,129.963,10.57,7.641,19.286,18.063,31.266,23.625-46.4-47.215-102.776-82.933-156.964-120.393C1094.171,942.088,1068.616,931.332,1043.616,920.131Z" transform="translate(-628.753 -792.319)" fill="#dab998"/>
      </g>
      <path id="Контур_229" data-name="Контур 229" d="M1140.506,799.5c2.336.742,4.674,1.559,7.01,2.485,5.749,7.679,11.09,15.689,17.1,23.181,8.9,13.168,17.321,26.667,26.852,39.427-1.037-.444-3.116-1.335-4.19-1.781-3.449-2.856-6.677-5.749-10.237-8.307-3.264-12.091-12.277-21.178-18.8-31.488A239.077,239.077,0,0,0,1140.506,799.5Z" transform="translate(-15.683 -272.012)" fill="#dab998"/>
      <path id="Контур_230" data-name="Контур 230" d="M1168.413,837.6c7.381,6.675,12.573,15.355,16.617,24.4l1.706,6.193C1181.246,857.624,1174.051,848.055,1168.413,837.6Z" transform="translate(6.407 -241.859)" fill="#dab998"/>
      <path id="Контур_231" data-name="Контур 231" d="M1230.8,857.126l2.485-.111c4.339,2.114,6.453,6.638,8.827,10.644C1235.773,868.771,1228.947,864.1,1230.8,857.126Z" transform="translate(55.547 -226.487)" fill="#dab998"/>
      <path id="Контур_232" data-name="Контур 232" d="M1198.1,875.626c5.194,6.9,10.053,14.058,14.874,21.253,5.527,8.678,11.758,16.95,19.546,23.812.446-2.893,1.336-8.643,1.818-11.536,27.52,50.072,43.284,105.077,60.9,159.078a127.776,127.776,0,0,0,12.315,26.891c5.154-20.771,3.04-42.32,4.19-63.5.371-5.192.52-10.459.853-15.651.63-.557,1.854-1.67,2.485-2.227,8.234,35.014,19.286,70.027,18.62,106.412,2.225,39.241-6.788,80.633-32.121,111.493-11.2,12.2-21.809,25.74-37.016,33.121-16.8,9.606-35.9,13.834-54.818,16.69l1.372-5.971c1.261-.742,3.784-2.3,5.045-3.078-7.233-3.562-11.647-9.458-11.127-17.878,11.2.3,22.661,2.263,33.751-.555-1.67-1.372-4.97-4.117-6.6-5.489-9.531-.111-19.064-.371-28.559-.52-.185-9.755-.3-19.51-.222-29.227,22.512-1.521,44.619-12.054,56.821-31.564-4.526-10.348,4.6-19.582,5.416-29.745,1.743-13.426,3.635-26.889,3.449-40.428-2.225-45.769-13.686-90.794-28.893-133.856-4.859-13.686-9.644-27.373-14.687-40.984-1.261-3.524-2.56-7.01-3.822-10.459a48,48,0,0,0-18.582-26.372c.779-2.633,2.374-7.863,3.153-10.5A158.79,158.79,0,0,1,1198.1,875.626Z" transform="translate(29.906 -211.756)" fill="#dab998"/>
      <path id="Контур_233" data-name="Контур 233" d="M1227.019,1039.78c-1.854-5.935-.446-10.719,4.266-14.392C1235.253,1028.5,1232.657,1040.892,1227.019,1039.78Z" transform="translate(52.173 -93.21)" fill="#dab998"/>
      <path id="Контур_234" data-name="Контур 234" d="M1224.89,1035.615" transform="translate(51.112 -85.114)" fill="#dab998"/>
      <path id="Контур_235" data-name="Контур 235" d="M1182.2,1075.383c4.45-11.8,17.283-8.68,27.149-8.272-.3,10.5-.222,21.029,0,31.564C1197.259,1095.893,1192.846,1081.465,1182.2,1075.383Z" transform="translate(17.321 -60.716)" fill="#dab998"/>
    </g>
    <g id="Сгруппировать_47" data-name="Сгруппировать 47" transform="translate(1019.723 411.498)">
      <path id="Контур_236" data-name="Контур 236" d="M1163.161,654.813c12.313,17.285,26.037,33.418,39.5,49.813-24.516-3.3-49-6.2-73.771-5.378.668,1.3,2,3.931,2.671,5.267-28.337-.779-56.9-2.152-85.047,1.928-7.457.89-14.725-1.854-22.106-2-24.034,3.08-48.032,7.568-70.62,16.579-2.076.446-6.231,1.261-8.307,1.67-10.57,6.231-22.217,10.051-33.678,14.094,13.65,1.483,25.222-6.713,37.868-10.2,11.609-1.707,23.4.3,35.014-1.6,26.741-4.672,53.372-11.126,80.671-10.866a494.088,494.088,0,0,0-83.268,16.986c3.08,2.152,6.306,4.377,9.422,6.6-11.907.149-22.959,4.859-34.308,7.79-27.3,10.015-55.375,19.695-79.112,36.942a300.574,300.574,0,0,1-47.252,2.225c-1.114,1.892-3.375,5.638-4.488,7.528-10.905-.073-21.253-4.079-32.01-5.376,28.3-27.484,56.044-57.342,92.726-73.551,22.4-11.607,46.435-19.582,70.729-26.037,23.4-7.046,47.141-13.093,71.1-17.914,44.545-7.937,90.055-11.72,135.415-9.977ZM1090.613,669.5c25.592,3.97,51.7,2.6,77,8.829-.147-1.892-.482-5.6-.631-7.457-14.352-1.113-28.3-5.081-42.467-7.306-2.856.038-8.6.073-11.461.111C1105.931,667.091,1096.882,664.457,1090.613,669.5Z" transform="translate(-794.339 -654.813)" fill="#d1885d"/>
    </g>
    <path id="Контур_237" data-name="Контур 237" d="M1007.2,657.153c17.468.407,35.235,1.743,52.185,6.045,7.454.964,15.244.706,22.217,4.006,16.579,2.523,33.307,5.49,49.033,11.35a207.974,207.974,0,0,1-25.073,13.279c-25.222-7.567-51.74-13.65-78.186-12.278,22.661,5.749,45.509,10.905,68.171,16.69-9.68,4.526-19.4,8.938-29.227,13.019-6.267-1.967-13.353-5.638-19.731-2C1032.534,691.313,1019.739,674.325,1007.2,657.153Z" transform="translate(393.879 -241.463)" fill="#d1885d"/>
    <path id="Контур_238" data-name="Контур 238" d="M1127.816,700.467c5.118-4.228,10.126-8.642,15.022-13.13,62.013,25.777,119.281,61.829,173.69,101,19.213,14.465,39.909,28.448,51.407,50.406-7.566-.89-15.245-2.114-21.7-6.344-31.9-21.92-64.425-43.1-98.511-61.458a166.586,166.586,0,0,1-16.244-11.015c-4.414-.186-8.829-.26-13.206-.335,4.525,1.372,9.089,2.634,13.723,3.895,43.766,29.339,83.342,64.425,123.324,98.622l.26.779c13.686,15.578,30.9,27.6,44.73,43.1-12.833-10.644-25.406-21.549-38.35-32.046-59.27-48.736-123.621-91.5-192.385-125.66-20.956-11.2-43.58-18.767-64.536-29.894,4.784-3.635,9.607-7.195,14.465-10.794a14.157,14.157,0,0,0,9.531,4.748c11.46,5.454,22.921,10.943,34.606,15.986a115.989,115.989,0,0,1,37.311,15.467c3.932.26,7.863.519,11.832.779C1185.3,728.358,1157.785,711.779,1127.816,700.467Z" transform="translate(471.325 -217.57)" fill="#d1885d"/>
    <path id="Контур_239" data-name="Контур 239" d="M991.395,698.082c36.533-7.974,74.328-2.263,110.973,2.3q9.793,1.225,19.695,2.189c-11.015,2.893-20.325,9.531-30.747,13.648-18.285,3.191-37.2,2.709-55,8.642-9.531,3.56-19.695,3.116-29.634,3.857-51.927,8.9-103.963,18.249-156.669,21.1,24.629-12.426,49.515-24.629,75.96-32.75,13.315-4.6,27.336-6.826,40.613-11.574-3.857-.111-11.609-.26-15.5-.333-.075-1.3-.26-3.82-.371-5.081,3.746.593,11.163,1.743,14.909,2.336C971.069,693.743,983.087,699.825,991.395,698.082Z" transform="translate(269.45 -212.218)" fill="#d1885d"/>
    <path id="Контур_240" data-name="Контур 240" d="M1087.073,717.454c1.3-.706,3.895-2.189,5.192-2.893,50.146,20.732,99.772,43.8,144.577,74.846a231.95,231.95,0,0,0-36.46-12.351,89.04,89.04,0,0,0-23.59-3.151,99.282,99.282,0,0,0,15.949,16.1c-8.6-4.117-17.357-7.79-26.074-11.5-10.495-4.71-21.067-9.755-32.563-11.276-1.113-.185-3.339-.519-4.452-.7C1114.853,750.686,1100.945,734.069,1087.073,717.454Z" transform="translate(457.101 -196.021)" fill="#d1885d"/>
    <path id="Контур_241" data-name="Контур 241" d="M1064.983,735.842a392.564,392.564,0,0,0,35.643-18.693c11.536,12.609,22.18,25.962,33.864,38.424l-7.863.742-4.192-1.483c-2.745-2.374-5.414-4.821-8.01-7.268-15.5-.371-30.413-4.748-45.4-8.234C1068.025,738.474,1066.022,736.731,1064.983,735.842Z" transform="translate(439.616 -193.972)" fill="#d1885d"/>
    <path id="Контур_242" data-name="Контур 242" d="M826.635,769.045c23.552-.853,47.03-2.892,70.509-4.488-.928,1.448-2.82,4.339-3.784,5.749-26.074,3.673-52.779,6.158-79,2.6C818.179,770.937,822.185,768.9,826.635,769.045Z" transform="translate(241.231 -156.446)" fill="#d1885d"/>
    <path id="Контур_243" data-name="Контур 243" d="M753.882,768.823c17.283-.742,34.864-1.224,51.665,3.524-16.764,7.714-36.385,2.188-54.372,3.56C751.841,774.126,753.214,770.6,753.882,768.823Z" transform="translate(191.217 -153.442)" fill="#d1885d"/>
    <path id="Контур_244" data-name="Контур 244" d="M783.326,774.191c13.537-7.679,30.414-4.155,45.434-5.638C813.74,771.222,798.717,776.083,783.326,774.191Z" transform="translate(216.667 -153.283)" fill="#d1885d"/>
    <path id="Контур_245" data-name="Контур 245" d="M1112.1,782.734a46.289,46.289,0,0,0,17.8-2.671c8.976,4.044,18.582,6.455,27.6,10.534-3.784-2.745-7.492-5.527-11.239-8.161,8.865,2.189,17.916,3.635,26.891,5.416,25.777,5.638,49.18,17.878,73.771,26.965.853,1.037,2.6,3.116,3.486,4.153,6.416,2.931,13.2,5.453,18.766,10.015a1037.412,1037.412,0,0,1,81.747,70.842c10.681,10.719,22.513,20.585,30.858,33.418a105.524,105.524,0,0,1-23.96-16.1c-11.312-9.644-24.553-16.617-36.793-24.924-11.052-6.751-21.251-15.5-34.047-18.768,24.516,14.205,42.727,36.163,64.869,53.372,18.62,14.021,35.161,30.6,51.556,47.141,6.824,7.2,14.057,14.021,20.7,21.4-8.123-6.12-15.393-13.353-24.147-18.62-21.844-15.393-41.948-33.233-64.127-48.18-2.374-4.006-4.488-8.53-8.827-10.644l-2.485.111a65.145,65.145,0,0,1-12.611-8.2c-16.395-11.8-32.046-26.372-51.48-32.53-12.982-9.791-25.7-19.917-38.945-29.337.333,1.632.964,4.932,1.3,6.564-11.165-6.3-22.848-12.129-35.681-13.983-6.009-7.492-11.35-15.5-17.1-23.181a68.212,68.212,0,0,1,25.258,8.68l8.012,1.335c23.292,11.2,46.881,22.031,71.213,30.673-25.555-23.181-58.158-36.571-89.833-49.071-6.044-.371-12.016-.667-17.987-1.037-10.943-9.977-26.334-6.342-39.687-6.937l-2.745-3.82c-.073-1.521-.222-4.488-.3-5.971C1119.743,788.632,1115.959,785.628,1112.1,782.734Z" transform="translate(476.913 -144.172)" fill="#d1885d"/>
    <g id="Сгруппировать_48" data-name="Сгруппировать 48" transform="translate(1459.078 638.6)">
      <path id="Контур_246" data-name="Контур 246" d="M1117.438,796.93c13.353-7.2,28.3-10.275,42.467-15.355a68.863,68.863,0,0,1,21.586,17.469c-30.969,2.225-62.644,12.8-84.268,35.939-12.018,11.127-19.51,25.815-27.6,39.8-.147,4.563-.222,9.162-.222,13.761,1.521-4.488,2.931-9.013,4.339-13.575,14.836-25.37,36.2-48.4,64.833-57.824,16.505-6.527,34.308-7.417,51.851-7.49,4.859,5.376,9.606,10.9,13.947,16.764-32.269-2.782-68.283,3.449-90.8,28.633-28.559,28.894-34.568,71.659-33.715,110.491,1.707-4.117,3.486-8.2,5.267-12.276-.3,9.977-.371,19.99.149,30.005,3.226,14.687,1.854,29.894,4.71,44.619,1.446,5.045.3,10.015-1.965,14.576,1.261,22.775,7.937,44.732,12.127,67.022,1.856,8.123,3.635,16.282,5.527,24.4.149,2.671.482,8.047.668,10.719-11.758-7.566-23.922-14.465-36.089-21.289-6.156-52.222-27.447-101.886-28.3-154.961-4.895-22.18-1.186-44.916,1.632-67.1C1050.713,857.831,1077.678,816.921,1117.438,796.93Zm-62.015,122.4c-1.113,3.931-2.188,7.863-3.151,11.794a116.917,116.917,0,0,1-4.155,11.609c-2.374,16.506-1.261,33.233-.557,49.813l6.677.3c-.075-16.728-2.411-34.084,2.669-50.293a171.829,171.829,0,0,0,1.261-23.923l3.375-.706c.038-7.157.3-14.279.482-21.4C1058.39,903.711,1059.021,912.167,1055.423,919.326Z" transform="translate(-1039.575 -781.575)" fill="#d1885d"/>
    </g>
    <path id="Контур_247" data-name="Контур 247" d="M875.522,813.132c46.364-5.378,92.206-14.354,138.309-21.475-4.785,1.3-9.569,2.818-14.243,4.3.075,2.449.222,7.308.3,9.717-27.484,18.62-51.778,41.245-78.112,61.347-36.68-.815-73.92,1.521-109.043,12.946-11.609,4.228-24.813,5.452-34.382,13.981-.335.26-1.077.742-1.41.966l-1.41.926c-65.686,32.6-127.923,73.549-197.8,96.99,15.391-10.237,32.788-16.95,48.625-26.481,72.881-43.062,141.795-93.615,202.1-153.107,12.091-.111,24.183.26,36.274.519-20.214,20.437-46.511,32.972-68.394,51.294-11.905,10.459-25.22,19.324-36.014,31.044,7.419,1.706,12.648-3.708,18.1-7.344C811.1,863.982,844.4,839.873,875.522,813.132Z" transform="translate(53.924 -134.995)" fill="#d1885d"/>
    <path id="Контур_248" data-name="Контур 248" d="M1127.319,797.992a188.828,188.828,0,0,1,23.625,2.707,239.077,239.077,0,0,1,17.729,23.516c-7.492-5.454-16.839-6.9-25.814-7.345C1137.443,810.787,1132.214,804.483,1127.319,797.992Z" transform="translate(488.958 -129.98)" fill="#d1885d"/>
    <g id="Сгруппировать_49" data-name="Сгруппировать 49" transform="translate(1525.592 709.758)">
      <path id="Контур_249" data-name="Контур 249" d="M1125.77,824.723c24.293-6.047,49.107-3.488,73.067,2.929,10.535,14.725,20.66,29.82,29.969,45.4-11.276,0-17.025-10.422-23.33-18.027-9.384-11.572-18.025-25.109-32.49-30.784,1.928,12.389,8.381,23.256,15.1,33.6-3.228-.075-9.719-.3-12.946-.371a77.7,77.7,0,0,0-18.469,12.462c8.975,9.273,21.362,17.283,22.7,31.377-2.485.3-7.379.817-9.828,1.077q-5.453,4.171-10.792,8.345c-1.261,27.52.742,54.929,3.153,82.227,1.817-2.967,3.671-5.934,5.6-8.827.964,9.16,2.114,18.285,3.746,27.409-2.523-2.3-7.568-6.862-10.088-9.16,4.71,17.394,8.419,35.124,9.94,53.113a254.061,254.061,0,0,1,5.674,48.512,21.034,21.034,0,0,0,3.6,13.241c3.97,20.437,8.272,41.059,8.383,61.94-26.408-11.09-50.776-26.148-74.735-41.763-1.929-9.977-3.635-19.954-4.9-30.005-4.71-19.473-8.643-39.092-12.389-58.751-1.408-5.971-1.632-12.906-7.233-16.728.52,30.9,10.164,61.013,13.353,91.724-.853,1-2.6,3-3.486,4.006-2.447-1.521-7.344-4.6-9.791-6.12-1.448-.964-4.341-2.856-5.787-3.822a247.371,247.371,0,0,0-6.935-36.05c-.038-12.129.519-24.3-.149-36.387,1.928.409,5.785,1.188,7.752,1.6a272.477,272.477,0,0,0,5.49-30.822c-2.263,4.079-4.452,8.2-6.529,12.387,2.782-14.761-4.6-28.633-3.449-43.32,1.335-32.676-.3-65.761,7.417-97.769,5.787-22,18.211-44.248,40.688-52.444-2.485-.038-7.455-.075-9.94-.075-13.019,9.755-25.37,20.807-31.528,36.311C1090.238,849.721,1108.413,835.516,1125.77,824.723Zm-4.153,37.2c0,5.935-.075,11.869-.186,17.84,2.152.149,6.491.444,8.68.593-.3-2.707-.928-8.159-1.225-10.9l4.9-5.045c1.817.408,5.489,1.261,7.306,1.707-.111-2.374-.371-7.159-.482-9.533C1133.893,857.027,1126.736,856.8,1121.617,861.923Zm28.893,17.1c.149,2.745.371,8.234.52,10.979-2.745,8.9-20.289-1.781-14.576,11.572,5.86.52,11.794.333,17.728.371,5.973-6.045,4.341-14.65,4.748-22.328C1156.852,879.466,1152.624,879.171,1150.51,879.022Z" transform="translate(-1076.701 -821.293)" fill="#d1885d"/>
    </g>
    <path id="Контур_250" data-name="Контур 250" d="M1228.016,826.189c15.837,10.719,30.3,23.254,45.991,34.2,16.1,10.832,33.38,23.665,37.979,43.73-9.347-2.374-14.132-11.276-20.214-17.84C1273.042,863.649,1248.934,846.55,1228.016,826.189Z" transform="translate(568.666 -107.66)" fill="#d1885d"/>
    <path id="Контур_251" data-name="Контур 251" d="M1151.892,828.218q8.014,1.779,16.135,3.56c3.56,2.558,6.788,5.452,10.237,8.307,1.075.446,3.153,1.336,4.191,1.781,19.472,9.013,37.015,21.549,54.485,33.9-12.982-1.892-25.777-5.154-38.832-6.342-4.043-9.049-9.235-17.729-16.617-24.4,5.638,10.459,12.833,20.028,18.322,30.6l1.261,4.3c-5.416-1.781-10.868-3.6-16.135-5.638C1174.22,858.7,1163.354,843.238,1151.892,828.218Z" transform="translate(508.409 -106.055)" fill="#d1885d"/>
    <path id="Контур_252" data-name="Контур 252" d="M1226.753,865.234c22.29,18.211,47.1,34.678,63.645,58.787-5.081-3-10.088-6.045-15.1-9.049-.927-1.224-2.707-3.71-3.635-4.934-12.054-11.645-24.664-22.7-37.386-33.64A52.221,52.221,0,0,1,1226.753,865.234Z" transform="translate(567.667 -76.754)" fill="#d1885d"/>
    <path id="Контур_253" data-name="Контур 253" d="M755.421,935.713c49.848-17.023,97.694-39.352,144.093-64.165-26.408,30.005-46.251,67.021-48.438,107.6-13.13,5.414-25.481,12.611-38.945,17.321-30.673,14.539-63.5,24.48-96.21,33.307-13.13,3.895-26.743,6.082-40.28,7.937-8.234,2.263-18.731,5.49-25.741-1.372-25.333,9.755-54.669,7.01-81.745,8.2-13.464,5.9-27.149-.7-40.65-2.781-18.174-4.006-37.238.964-55.227-4.228-27.818-1.521-54.745-9.311-81.45-16.69a138.255,138.255,0,0,1-41.985-18.695c15.058,2.782,29.672,7.6,44.656,10.608,5.23.779,10.608,1.336,15.355,3.784,9.493,1.632,19.619.482,28.67,4.3,16.022,4.08,32.9,2.707,48.772,6.935,18.693,1.186,38.872.7,56.339-5.638-6.267-.964-12.98-.444-18.8-3.338-12.313-1.448-25.073.52-37.015-3.413-14.874-1.446-30.191-2.447-44.359-7.639-5.045-.928-10.126-1.856-15.133-3.08-17.246-4.079-34.307-9.347-50.071-17.616a25.646,25.646,0,0,1-12.389-13.723c13.688-.779,27.151,1.89,40.131,6.007,12.091,2.858,24.517,4.3,36.422,7.938,25.481,3.931,50.925,10.459,76.924,8.234.52-.853,1.521-2.523,2.041-3.339-12.351-3.486-25.628-3.338-37.349-8.863a695.159,695.159,0,0,0,76.589-2.263c16.135-3.191,31.9-8.161,48.365-9.793,10.868-1.705,22.328-2.41,31.972-8.307,4.45-.371,8.9-.742,13.353-1.075,20.214.853,38.5-7.716,57.934-11.239C725.081,943.243,740.956,941.424,755.421,935.713Z" transform="translate(-127.254 -71.756)" fill="#d1885d"/>
    <path id="Контур_254" data-name="Контур 254" d="M678.592,916.861c15.762-17.432,36.756-29.6,58.9-37.053a82.484,82.484,0,0,0-25.257,15.542C702.144,904.177,689.94,909.926,678.592,916.861Z" transform="translate(133.763 -65.218)" fill="#d1885d"/>
    <path id="Контур_255" data-name="Контур 255" d="M397.886,914.63c2.893,3.709,3.932,8.234,5.452,12.611,7.641.926,15.32,1.779,22.885,3.338,29.894,10.83,62.311,8.976,93.577,9.644-.371,1.113-1.186,3.262-1.594,4.375-23.59.817-47.29,1.559-70.767-1.408-14.5-8.42-31.008-12.611-47.29-15.913C399.3,923.086,398.554,918.858,397.886,914.63Z" transform="translate(-88.433 -37.654)" fill="#d1885d"/>
    <path id="Контур_256" data-name="Контур 256" d="M876.4,989.283a93.94,93.94,0,0,1,8.863,7.937c12.464,20.623,29.3,37.943,45.176,55.857q6.622,7.568,14.021,14.5c19.435,21.253,42.727,38.61,62.124,59.863-25.517-2.152-53.595,6.973-77-6.491a218.545,218.545,0,0,0-19.768-20.4c-17.285-16.95-34.2-34.42-48.885-53.707-5.971-8.567-13.5-18.1-11.314-29.264,6.009-2.225,10.979,2.931,15.578,5.936,29.82,25.071,53.226,57.376,85.382,79.742-8.383-10.681-16.506-21.549-24.109-32.75,1.892-1.039,5.638-3.115,7.53-4.155C916.68,1039.28,894.612,1015.728,876.4,989.283Z" transform="translate(268.836 21.438)" fill="#d1885d"/>
    <path id="Контур_257" data-name="Контур 257" d="M1065.822,1006.735c8.976,6.084,18.36,11.573,26.78,18.509l2.41,2.558,3.191,1.781c9.828,4.9,20.769,9.422,26.779,19.25-21.735-11.758-42.58-25.148-62.979-39.019l6.342,3.633Z" transform="translate(437.256 35.253)" fill="#d1885d"/>
    <path id="Контур_258" data-name="Контур 258" d="M1084.4,1008.329c33.123,18.62,66.021,37.684,99.994,54.782l-.593,9.5c-22.959-10.386-45.287-22.81-63.758-40.169C1109.624,1022.35,1096.087,1016.638,1084.4,1008.329Z" transform="translate(454.987 36.514)" fill="#d1885d"/>
    <path id="Контур_259" data-name="Контур 259" d="M852.369,1044.369c-8.161-9.2-13.464-20.363-18.322-31.526,21.474,17.692,41.168,37.386,61.123,56.746,10.534,11.8,23.07,21.513,34.606,32.27-10.756,0-20.659-4.266-30.489-7.939-8.492-11.312-18.618-21.252-28.855-30.933-1.41-1.408-2.82-2.781-4.192-4.117C862.531,1053.158,858.154,1048,852.369,1044.369Z" transform="translate(256.815 40.088)" fill="#d1885d"/>
    <path id="Контур_260" data-name="Контур 260" d="M1099.7,1030.5c9.606,4.339,18.657,9.718,28.04,14.576,19.028-4.117,34.866,11.832,52.668,16.246l-2,5.86c-11.572-4.934-22.364-12.8-35.31-13.352C1128.409,1046.6,1111.237,1042.853,1099.7,1030.5Z" transform="translate(467.097 54.066)" fill="#d1885d"/>
    <path id="Контур_261" data-name="Контур 261" d="M1080.365,1059.154c12.129,7.492,24.183,15.244,37.2,21.142a46.776,46.776,0,0,0,2.893,17.135l.147,2.152a263.677,263.677,0,0,1-.853,27.6c-1.372,10.348-3.6,20.547-4.6,30.931-6.416-27.112-11.98-54.447-19.362-81.263-1.668,20.141,5.378,39.575,5.6,59.679-5.824-14.243-9.571-29.154-14.391-43.693A327.657,327.657,0,0,1,1080.365,1059.154Z" transform="translate(451.791 76.746)" fill="#d1885d"/>
    <path id="Контур_262" data-name="Контур 262" d="M898.735,1075.884c25.739,1,51.221-3.227,76.851-4.672,7.306-1.335,11.385,5.971,16.1,10.051-31.118,2.225-62.681,2.931-93.539-2.225C898.291,1078.258,898.586,1076.664,898.735,1075.884Z" transform="translate(307.551 86.163)" fill="#d1885d"/>
    <path id="Контур_263" data-name="Контур 263" d="M1108.8,1073.128c5.86,2.671,11.8,5.23,17.692,7.938-2.374.742-7.121,2.225-9.5,3,20.178,10.348,41.059,19.435,63.239,24.665-.964,1.632-2.929,4.859-3.893,6.453-1.3,12.536,3.744,28.448-8.494,36.942-8.716.778-12.351-6.084-15.022-13.168-6.75,0-7.306,5.267-7.084,11.016,2,1.483,5.971,4.45,7.937,5.971-.3,4.561-.556,9.2-.742,13.834,13.539-4.006,21.031,13.39,11.907,22.662l-15.875-.593-3.413-.073c-1.372-2.263-4.08-6.826-5.452-9.124l9.644-2.82c-.037-3.522-.037-7.009,0-10.495-4.9.371-9.829.742-14.725,1.148-2-5.154-4.006-10.273-5.971-15.391-2.634-.149-5.267-.222-7.863-.3-3.191-4.894-6.417-9.717-9.828-14.427.3,14.762,7.268,28,10.867,42.061,3.671,18.953,15.429,34.937,20.325,53.557-1.337,1.743-3.97,5.267-5.3,7.01-5.971-8.643-11.758-17.543-14.5-27.78-5.489-18.806-14.205-36.386-20.807-54.744,1.224-14.132,6.047-27.893,5.676-42.1-.706-10.013-1.484-20.065-1.892-30.079l-.038-2.263Z" transform="translate(468.867 87.807)" fill="#d1885d"/>
    <path id="Контур_264" data-name="Контур 264" d="M904.042,1091.25c34.568-.52,69.247-.038,103.443-6.342a242.369,242.369,0,0,0,24.629,17.248c-2.225,2.447-4.452,4.932-6.713,7.417-13.353-.593-27-3.858-40.133.26-16.839,2.114-33.9-.3-50.7-2.114,1.594-1.928,4.747-5.823,6.342-7.788C928.447,1098.112,915.169,1097.816,904.042,1091.25Z" transform="translate(312.221 97.132)" fill="#d1885d"/>
    <path id="Контур_265" data-name="Контур 265" d="M995.913,1098.278c12.127.668,24.329,1.261,36.5-.038,12.647,8.42,25.146,17.21,38.61,24.369,8.68,4.525,12.684,13.834,17.729,21.735,15.467,22.995,29.634,46.806,44.4,70.322,8.716,13.017,13.315,29.486,26.186,39.314-2.041-.407-6.12-1.261-8.161-1.706l-.222-3.226c-20.88,5.452-39.167-6.935-57.86-13.835-54.039-26.519-101-64.722-146.949-103.11-1.483-3.746-2.931-7.419-4.414-11.09l-5.341-.78c-8.123-5.527-15.058-12.535-22.031-19.361,22.364.817,44.768-.63,67.058.409C986.047,1100.429,994.057,1105.732,995.913,1098.278Z" transform="translate(320.382 107.685)" fill="#d1885d"/>
    <path id="Контур_266" data-name="Контур 266" d="M1122.821,1111.738c2.745,12.686,5.341,25.443,9.828,37.684a67.794,67.794,0,0,1-15.467,17.545c-.926,1.966-2.818,5.9-3.746,7.9,9.606-1.668,16.543-8.456,22.923-15.28,5.117,14.168,10.421,28.335,15.762,42.467-5.823-7.492-13.017-14.428-22.921-15.391-9.755,6.6-23.33,15.318-19.77,29.152,5.749,10.459,14.578,18.693,23.256,26.741-4.266,5.3-12.018,4.9-17.729,7.568-4.079-7.232-9.458-13.65-14.761-19.918.853-4.672,1.743-9.309,2.632-13.908-3.263.3-9.828.89-13.093,1.186-15.873-23.181-33.305-45.285-48.809-68.726,18.433,8.418,39.2,12.276,59.27,8.234C1117.109,1149.533,1126.27,1129.616,1122.821,1111.738Z" transform="translate(420.574 118.369)" fill="#d1885d"/>
    <path id="Контур_267" data-name="Контур 267" d="M1129.285,1146.524c1.93-.333,5.824-1.037,7.752-1.373l2.225,3.153c-1.075,1.817-3.265,5.452-4.339,7.27A24.948,24.948,0,0,1,1129.285,1146.524Z" transform="translate(490.515 144.818)" fill="#d1885d"/>
    <path id="Контур_268" data-name="Контур 268" d="M1091.116,1162.432c5.749-6.6,14.465,1.113,13.612,8.048a15.848,15.848,0,0,0-9.5,8.642c-3.375-.111-6.751-.184-10.088-.26C1084.588,1172.52,1085,1165.88,1091.116,1162.432Z" transform="translate(455.432 156.507)" fill="#d1885d"/>
    <path id="Контур_269" data-name="Контур 269" d="M1112.272,1164.24c.89,2.671,1.745,5.341,2.56,8.086l-.3,1c-5.154,7.974-9.68,18.693-20.992,18.286-.186-3.859-.335-7.716-.446-11.536A126.459,126.459,0,0,0,1112.272,1164.24Z" transform="translate(461.87 159.928)" fill="#d1885d"/>
    <path id="Контур_270" data-name="Контур 270" d="M1108.631,1175.15c.484,2.114,1.521,6.342,2,8.456l-3-1.224C1107.89,1180.566,1108.374,1176.931,1108.631,1175.15Z" transform="translate(473.373 168.564)" fill="#d1885d"/>
    <g id="Сгруппировать_50" data-name="Сгруппировать 50" transform="translate(1548.533 731.622)">
      <path id="Контур_271" data-name="Контур 271" d="M1101.135,849.171c-2.1,7.319-4.457,14.539-6.15,21.993-1.519,6.7-4.033,13.447-5.093,20.171-1.872,11.858,3.039,23.939,15.544,27.375,10.576,2.906,25.49-3.6,27.373-15.543,1.062-6.724,3.574-13.476,5.1-20.169,1.693-7.456,4.052-14.677,6.15-22,7.9-27.585-35.029-39.362-42.919-11.831Z" transform="translate(-1089.506 -833.497)" fill="#d1885d"/>
    </g>
    <g id="Сгруппировать_51" data-name="Сгруппировать 51" transform="translate(1566.862 757.18)">
      <path id="Контур_272" data-name="Контур 272" d="M1106.256,885.765l.095.113-3.481-4.5a6.51,6.51,0,0,1,.668,1.192c.093.193.186.389.3.573.05.082.1.161.16.24l1.827,2.367a26.935,26.935,0,0,0,1.836,2.363,22.89,22.89,0,0,0,31.472,0l3.479-4.5a22.142,22.142,0,0,0,3.039-11.231l-.8-5.918a22.24,22.24,0,0,0-5.722-9.82l-.1-.111,3.479,4.5a6.482,6.482,0,0,1-.67-1.19c-.091-.193-.187-.389-.3-.573-.05-.082-.1-.163-.158-.242q-.908-1.188-1.827-2.367-.86-1.228-1.837-2.363a22.88,22.88,0,0,0-31.47,0l-3.481,4.5a22.16,22.16,0,0,0-3.038,11.231l.8,5.916a22.224,22.224,0,0,0,5.724,9.819Z" transform="translate(-1099.737 -847.763)" fill="#d1885d"/>
    </g>
    <g id="Сгруппировать_52" data-name="Сгруппировать 52" transform="translate(1694.263 1154.045)">
      <path id="Контур_273" data-name="Контур 273" d="M1187.219,1115.307c25.012,9.585,50.549,6.376,75.548-1.874,27.074-8.933,15.477-51.928-11.832-42.917-18.233,6.016-33.656,8.859-51.885,1.874-11.224-4.3-24.41,4.757-27.373,15.543-3.447,12.544,4.276,23.057,15.542,27.374Z" transform="translate(-1170.849 -1069.282)" fill="#dab998"/>
    </g>
    <g id="Сгруппировать_53" data-name="Сгруппировать 53" transform="translate(1686.068 1162.789)">
      <path id="Контур_274" data-name="Контур 274" d="M1267.031,1074.29c-13.444,1.326-26.97,1.156-40.405,2.531-10.289,1.053-23.271,5.618-33.325,2.012-27.008-9.687-38.639,33.3-11.831,42.918,12.975,4.653,26.417,2.35,39.7.437,15.21-2.189,30.577-1.885,45.859-3.391,28.244-2.782,28.531-47.319,0-44.508Z" transform="translate(-1166.274 -1074.163)" fill="#dab998"/>
    </g>
    <g id="Сгруппировать_54" data-name="Сгруппировать 54" transform="translate(1714.897 1150.722)">
      <path id="Контур_275" data-name="Контур 275" d="M1204.634,1111.948h1.874a22.874,22.874,0,0,0,22.253-22.253l-.8-5.918a22.24,22.24,0,0,0-5.722-9.82l-4.5-3.479a22.143,22.143,0,0,0-11.231-3.038h-1.874a22.873,22.873,0,0,0-22.255,22.255l.8,5.916a22.239,22.239,0,0,0,5.722,9.82l4.5,3.479a22.147,22.147,0,0,0,11.233,3.038Z" transform="translate(-1182.366 -1067.428)" fill="#dab998"/>
    </g>
    <g id="Сгруппировать_55" data-name="Сгруппировать 55" transform="translate(1528.446 1300.642)">
      <path id="Контур_276" data-name="Контур 276" d="M1078.294,1173.376v10.307a22.967,22.967,0,0,0,6.518,15.737c3.859,3.859,10.192,6.767,15.735,6.518,5.756-.258,11.726-2.148,15.737-6.518a23.124,23.124,0,0,0,6.518-15.737v-10.307a22.963,22.963,0,0,0-6.518-15.735c-3.861-3.859-10.192-6.767-15.737-6.518-5.754.258-11.724,2.148-15.735,6.518a23.125,23.125,0,0,0-6.518,15.735Z" transform="translate(-1078.294 -1151.109)" fill="#d1885d"/>
    </g>
    <g id="Сгруппировать_56" data-name="Сгруппировать 56" transform="translate(1517.187 1312.838)">
      <path id="Контур_277" data-name="Контур 277" d="M1102.711,1157.916h-8.433a22.963,22.963,0,0,0-15.735,6.518c-3.859,3.861-6.767,10.192-6.518,15.737.258,5.755,2.148,11.724,6.518,15.735a23.124,23.124,0,0,0,15.735,6.518h8.433a22.966,22.966,0,0,0,15.737-6.518c3.859-3.861,6.765-10.192,6.518-15.735-.258-5.756-2.148-11.726-6.518-15.737a23.129,23.129,0,0,0-15.737-6.518Z" transform="translate(-1072.01 -1157.916)" fill="#d1885d"/>
    </g>
    <g id="Сгруппировать_57" data-name="Сгруппировать 57" transform="translate(1505.008 1306.265)">
      <path id="Контур_278" data-name="Контур 278" d="M1087.478,1198.769h.937a22.873,22.873,0,0,0,22.255-22.255l-.8-5.916a22.227,22.227,0,0,0-5.724-9.82l-4.5-3.479a22.151,22.151,0,0,0-11.233-3.039h-.937a22.868,22.868,0,0,0-22.253,22.253l.793,5.917a22.245,22.245,0,0,0,5.724,9.82l4.5,3.479a22.142,22.142,0,0,0,11.231,3.039Z" transform="translate(-1065.212 -1154.247)" fill="#d1885d"/>
    </g>
    <g id="Сгруппировать_58" data-name="Сгруппировать 58" transform="translate(1595.73 1235.066)">
      <path id="Контур_279" data-name="Контур 279" d="M1137.347,1159.014c28.638,0,28.687-44.508,0-44.508-28.638,0-28.686,44.508,0,44.508Z" transform="translate(-1115.85 -1114.506)" fill="#d1885d"/>
    </g>
    <g id="Сгруппировать_59" data-name="Сгруппировать 59" transform="translate(1599.775 1274.173)">
      <path id="Контур_280" data-name="Контур 280" d="M1118.9,1164.517c.511,3.581,2.557,6.826,3.961,10.131l-2.245-5.317c1.528,3.82,2.933,7.7,4.744,11.4,2.347,4.8,8.3,8.85,13.3,10.226,5.326,1.467,12.421.8,17.149-2.243,4.751-3.063,8.935-7.625,10.226-13.3a24.759,24.759,0,0,0-2.243-17.147q-.376-.736-.7-1.5l2.243,5.317c-1.657-3.984-3.175-8.017-4.95-11.957l2.245,5.317a11.017,11.017,0,0,1-.812-2.759c-.729-5.119-5.991-10.821-10.226-13.3-4.771-2.791-11.8-3.974-17.148-2.243-5.384,1.741-10.579,5.079-13.3,10.226l-2.243,5.316a22.39,22.39,0,0,0,0,11.831Z" transform="translate(-1118.108 -1136.334)" fill="#c6bb52"/>
    </g>
    <g id="Сгруппировать_60" data-name="Сгруппировать 60" transform="translate(1233.179 1048.383)">
      <path id="Контур_281" data-name="Контур 281" d="M918.884,1024.939c2.7.962,5.4,1.911,8.076,2.933.672.258,1.344.518,2.012.785.335.134.666.271,1,.405.928.376.011.156-.283-.124a8.088,8.088,0,0,0,1.956.869c.708.326,1.416.657,2.107,1.014,2.162,1.113,4.126,2.566,6.258,3.732a20.563,20.563,0,0,0,9.893,2.833c3.881-.005,7.6-3.408,7.419-7.419a7.549,7.549,0,0,0-7.419-7.417,8.086,8.086,0,0,1-.883-.023q1.865.293.67.068a6.8,6.8,0,0,0-1.7-.525q1.61.7.527.2-.414-.2-.819-.417c-.546-.292-1.08-.607-1.611-.928a70.3,70.3,0,0,0-6.233-3.59c-5.522-2.614-11.283-4.651-17.029-6.7-3.66-1.308-8.282,1.473-9.126,5.181a7.608,7.608,0,0,0,5.181,9.125Z" transform="translate(-913.484 -1010.305)" fill="#f6852a"/>
    </g>
    <g id="Сгруппировать_61" data-name="Сгруппировать 61" transform="translate(1210.721 1043.823)">
      <path id="Контур_282" data-name="Контур 282" d="M904.547,1021.519c7.136,4,14.5,7.612,21.449,11.93,3.988,2.476,5.717,4.192,9.764,7.138,3.087,2.247,6.6,3.635,10.015,5.3,3.485,1.695,8.182,1.062,10.149-2.662,1.761-3.33,1.064-8.334-2.66-10.149-3.411-1.661-6.928-3.049-10.015-5.3-1.376-1-2.673-2.086-4.766-3.682-1.616-1.233-3.271-2.383-5-3.456-6.955-4.318-14.315-7.928-21.45-11.928-3.384-1.9-8.254-.924-10.149,2.661a7.543,7.543,0,0,0,2.662,10.149Z" transform="translate(-900.949 -1007.76)" fill="#f6852a"/>
    </g>
    <g id="Сгруппировать_62" data-name="Сгруппировать 62" transform="translate(1204.153 1055.068)">
      <path id="Контур_283" data-name="Контур 283" d="M902.662,1028.544c.468.109.926.228,1.385.375.244.079,1.587.584.478.149-1.134-.446.335.2.459.26.374.2.74.4,1.1.622.477.285,1.865,1.6,2.369,1.6-.477.005-1.075-.865-.039-.005.344.285.684.577,1.021.872a108.109,108.109,0,0,1,7.7,7.838c2.7,2.913,5.531,5.7,8.272,8.567,1.48,1.55,2.935,3.124,4.314,4.764.392.468.767.948,1.159,1.414-.417-.495-.5-.672-.047-.058.717.978,1.407,1.971,2.062,2.992,2.093,3.261,6.684,4.895,10.149,2.661,3.261-2.1,4.9-6.656,2.66-10.149-5.081-7.917-12.072-14.179-18.406-21.037-5.74-6.213-12.124-13.163-20.7-15.167-3.771-.883-8.211,1.17-9.125,5.181-.864,3.793,1.139,8.178,5.181,9.124Z" transform="translate(-897.282 -1014.036)" fill="#f6852a"/>
    </g>
    <g id="Сгруппировать_63" data-name="Сгруппировать 63" transform="translate(1197.556 1056)">
      <path id="Контур_284" data-name="Контур 284" d="M895.744,1027.161c.023.02,1.333,1.319.693.563s.326.571.435.749c.568.917,1.129,1.82,1.77,2.689a51.107,51.107,0,0,0,5.092,5.912c1.394,1.385,2.947,2.614,4.244,4.1.385.441.855,1.123.247.281q.471.653.932,1.31c.74,1.048,1.5,2.073,2.286,3.089a29.227,29.227,0,0,0,5.679,5.455c.817.623,1.646,1.231,2.479,1.835,1.125.813-.423-.443.19.156.362.353.769.659,1.129,1.017,3.155,3.125,5.629,6.987,8.555,10.33,2.564,2.929,7.9,2.818,10.491,0a7.6,7.6,0,0,0,0-10.491c-2.927-3.343-5.4-7.2-8.557-10.33a47.688,47.688,0,0,0-5.565-4.4c-.543-.4-1.007-.813-.219-.149-.392-.331-.788-.657-1.163-1.009-.391-.365-.74-.76-1.111-1.143-.946-.976.2.369-.265-.279-1.437-2-2.822-4.052-4.416-5.928-1.345-1.58-2.979-2.87-4.448-4.328-.779-.774-1.541-1.571-2.27-2.392-.288-.326-.559-.668-.851-.993,1,1.112-.3-.421-.416-.6-1.38-2.057-2.521-4.307-4.454-5.926-2.969-2.492-7.618-3.13-10.49,0-2.523,2.746-3.175,7.827,0,10.49Z" transform="translate(-893.601 -1014.556)" fill="#f6852a"/>
    </g>
    <g id="Сгруппировать_64" data-name="Сгруппировать 64" transform="translate(388.884 691.214)">
      <path id="Контур_285" data-name="Контур 285" d="M442.962,816.153c-1.734,5.894-.194,10.785,2.307,16.144a93.361,93.361,0,0,1,4.864,14.311c1.519,5.375,3.522,10.567,4.448,16.1.991,5.918,1.412,11.914,2.435,17.831.683,3.95,5.532,6.167,9.124,5.179,4.176-1.146,5.866-5.161,5.181-9.124-.923-5.341-1.36-10.749-2.162-16.11-.813-5.421-2.492-10.468-4.094-15.69-1.424-4.646-2.514-9.368-4.323-13.892-1-2.508-2.252-4.9-3.277-7.4a3.82,3.82,0,0,1-.2-3.406c2.7-9.178-11.613-13.1-14.306-3.943Z" transform="translate(-442.222 -810.943)" fill="#f6852a"/>
    </g>
    <g id="Сгруппировать_65" data-name="Сгруппировать 65" transform="translate(381.794 698.044)">
      <path id="Контур_286" data-name="Контур 286" d="M442.381,816.888c-6.091,6.2-4.119,16.12-2.288,23.679,2.589,10.689,6.457,21.008,10.217,31.326,1.326,3.637,5.1,6.485,9.126,5.181,3.571-1.156,6.6-5.221,5.181-9.124-3.347-9.176-6.772-18.347-9.313-27.789-.5-1.851-.969-3.708-1.381-5.581-.14-.636-.272-1.276-.392-1.917-.073-.392-.4-2.849-.174-.819a38.133,38.133,0,0,1-.186-4.7c.018-1.442-.138,1.471.194-.663q-.712,1.494-.174.448-1.121,1.292-.321.45a7.418,7.418,0,0,0-10.49-10.491Z" transform="translate(-438.265 -814.755)" fill="#f6852a"/>
    </g>
    <g id="Сгруппировать_66" data-name="Сгруппировать 66" transform="translate(369.503 712.054)">
      <path id="Контур_287" data-name="Контур 287" d="M433.253,828.028c-4.255,11.81-.269,23.083,3,34.5,2.884,10.072,4.685,20.237,12.964,27.534a7.6,7.6,0,0,0,10.491,0c2.7-2.7,3.017-7.831,0-10.49a17.755,17.755,0,0,1-3.841-4.4,23.29,23.29,0,0,1-1.487-2.883c.387.923-.364-1.055-.426-1.236-1.4-4.078-2.209-8.327-3.393-12.467-2.582-9.017-6.31-17.425-3-26.608,1.358-3.77-1.53-8.121-5.181-9.125-4.119-1.132-7.761,1.4-9.124,5.181Z" transform="translate(-431.404 -822.575)" fill="#f6852a"/>
    </g>
    <g id="Сгруппировать_67" data-name="Сгруппировать 67" transform="translate(930.473 743.189)">
      <path id="Контур_288" data-name="Контур 288" d="M751.946,860.2a15.482,15.482,0,0,0,6.414-1.732c1.12-.593,2.089-1.466,3.237-2,.36-.212.407-.224.143-.038a11.7,11.7,0,0,1,1.238-.314c.233-.052,1.851-.321.975-.2,2.066-.3,4.138-.494,6.184-.923.419-.088,2.519-.215.9-.22.2,0,1.879.134.944-.009-.987-.149,1.057.3,1.24.348.641.156,1.283.315,1.928.457,1.419.31,2.849.577,4.253.953a15.82,15.82,0,0,1,2.044.643c-1.141-.482.2.211.555.444l-1.5-11.651c-.432.493-.874.928-1.346,1.383-1.222,1.179.912-.378-.64.432-1.036.541-2.026,1.143-3.082,1.652-1.5.724.557-.156-.887.36-.679.244-1.354.5-2.035.736-1.215.421-2.44.812-3.662,1.208-2.567.833-5.09,1.8-7.67,2.6a32.419,32.419,0,0,1-4.425,1.1c1.028-.163-1.252.057-1.256.057-.278,0-2.365-.251-1.157-.029l-1.971,14.571c8.712-.116,17.529.835,26.207,1.539.145.013,2.381.319,1.132.1,1.018.176,1.992.446,2.987.717,1.714.464-.452-.383,1.2.489.865.455,1.711.949,2.551,1.448.6.355,1.191.715,1.774,1.095q.578.379,1.138.783-.884-.7.1.125a18.765,18.765,0,0,1,1.419,1.455c-1.139-1.437.765,1.939.147.314l1.906-7.218q-.927.916.059.041a2.384,2.384,0,0,1,1.392-.364l-.665-.007q1.817.164-1.421-.219a62.529,62.529,0,0,0-6.752.641c-3.52.33-7.046.733-10.576.932a61.825,61.825,0,0,1-6.494.088c-.213-.011-2.467-.2-1.252-.066,1.2.136-.872-.2-1.095-.246-.618-.136-1.722-.8.022.12-1.105-.581,1.129,1.378.022-.047l-1.5,11.651c1.657-.953.192.032-.188-.183q1.193.054.417-.07-.779-.156.41.093c.586.161,1.156.349,1.731.546.686.238-.514-.258.625.256a64.229,64.229,0,0,0,9.191,3.313c.573.159,1.145.326,1.709.518-.005,0,1.917.779,1.077.4,1.693.76,3.359,1.559,5.109,2.189,1.389.5,2.807.912,4.207,1.385a9.215,9.215,0,0,1,3.187,1.48l1.772-13.559c-.561.165-1.123.317-1.691.457-.07.016-1.306.267-.609.159a28.076,28.076,0,0,1-3.938.215c-2.487.025-4.975-.1-7.462-.1v14.836c3.363.005,6.726.043,10.083.229a85.638,85.638,0,0,1,8.859.912c3.814.622,8.169-.989,9.125-5.181.813-3.571-1.086-8.458-5.181-9.125a142.655,142.655,0,0,0-22.885-1.671c-3.881-.005-7.6,3.416-7.417,7.419a7.547,7.547,0,0,0,7.417,7.417c5.935.018,11.864.441,17.643-1.258a7.51,7.51,0,0,0,1.772-13.559,44.491,44.491,0,0,0-10.563-4.224q-1.271-.508-.432-.109-.758-.352-1.508-.718c-1.071-.493-2.154-.964-3.252-1.394a39.926,39.926,0,0,0-4.558-1.419c-.863-.226-1.711-.469-2.564-.735-1.433-.444.606.317-.923-.382a52.153,52.153,0,0,0-5.54-2.3A15.991,15.991,0,0,0,757.19,870.6c-4.554,2.617-4.353,7.976-1.5,11.651,4.142,5.333,13.27,4.825,19.29,4.5,4.5-.245,8.988-.779,13.469-1.206.638-.059,1.3-.077,1.93-.183.165-.029,1.43-.358.684-.306,1.682-.118,3.227.387,4.95.156a12.533,12.533,0,0,0,7.421-3.83c1.709-1.777,2.838-4.774,1.908-7.218-3.3-8.668-12.613-15.2-21.68-16.785-4.989-.872-10.1-.9-15.142-1.326-5.375-.452-10.744-.919-16.142-.847a7.433,7.433,0,0,0-7.286,6.434c-.453,3.374,1.675,7.467,5.314,8.137,7.981,1.473,14.947-1.308,22.4-3.728,6.453-2.094,13.575-4.3,18.2-9.585a7.543,7.543,0,0,0-1.5-11.651c-2.8-1.835-6.122-2.632-9.354-3.316-3.21-.679-6.426-1.763-9.746-1.49-2,.165-3.9.708-5.871,1.025.851-.138-1.478.176-1.417.169-1.211.154-2.453.288-3.657.53a19.679,19.679,0,0,0-5.651,2.1c-.708.394-1.356.887-2.042,1.315-1.132.708-.881.308.19.233-3.863.269-7.605,3.219-7.417,7.419.168,3.787,3.271,7.706,7.417,7.417Z" transform="translate(-744.522 -839.954)" fill="#dab998"/>
    </g>
  </g>
</svg>
