<svg xmlns="http://www.w3.org/2000/svg" width="595.048" height="585.162" viewBox="0 0 595.048 585.162">
  <g id="circle_bg" transform="matrix(1, 0.017, -0.017, 1, 11.018, 1.017)">
    <path id="Контур_150" data-name="Контур 150" d="M21.092,0,0,20.893C7.075,13.988,14.15,7.092,21.092,0Z" transform="translate(488.916 480.28)" fill="#ff9d33" stroke="#ffeace" stroke-width="2"/>
    <path id="Контур_151" data-name="Контур 151" d="M5.656,5.328A13.528,13.528,0,0,0,0,9.846,14.326,14.326,0,0,0,6.1,5.817C8.65,4.467,11.106,3,12.39,0L5.657,5.326Z" transform="translate(458.356 514.395)" fill="#ff9d33" stroke="#ffeace" stroke-width="2"/>
    <path id="Контур_152" data-name="Контур 152" d="M0,4.877l.417.458A14.6,14.6,0,0,0,6.1,0C3.553,1.043,1.775,2.958,0,4.877Z" transform="translate(480.368 502.152)" fill="#ff9d33" stroke="#ffeace" stroke-width="2"/>
    <path id="Контур_153" data-name="Контур 153" d="M0,3.77.6,4.783,6.625.837,6.04,0Z" transform="translate(445.408 528.083)" fill="#ff9d33" stroke="#ffeace" stroke-width="2"/>
    <path id="Контур_154" data-name="Контур 154" d="M0,6.179C2.366,4.1,4.105,2.464,4.948,0,3.272,1.675.784,2.782,0,6.179Z" transform="translate(510.6 472.288)" fill="#ff9d33" stroke="#ffeace" stroke-width="2"/>
    <path id="Контур_155" data-name="Контур 155" d="M0,4.9,4.765.457C4.625.3,4.486.152,4.349,0A7.531,7.531,0,0,0,0,4.9Z" transform="translate(476.02 507.031)" fill="#ff9d33" stroke="#ffeace" stroke-width="2"/>
    <path id="Контур_156" data-name="Контур 156" d="M.892,3.9C2.618,2.9,4.675,2.394,5.583,0L0,3.151Z" transform="translate(434.353 535.172)" fill="#ff9d33" stroke="#ffeace" stroke-width="2"/>
    <path id="Контур_157" data-name="Контур 157" d="M577.467,296.04h0m.061,8.194h0m-4.016-50.551c8.028,21.836,7.065,51.057.963,119.776,13.166-67.113,8.046-93.2,5.512-117.685-.481-4.654-1.13-9.3-1.907-13.917-3.73-22.163-10.6-43.336-18.709-64.3C551.14,156.28,541.4,135.977,528.4,117.236,507.692,87.39,482.174,62.589,450.894,44c-16.271-9.668-33.7-16.956-51.213-24.143A296.487,296.487,0,0,0,338.8,2.394C330.621.936,322.3,1.29,314.132,0h-34.5c-3.27,1.691-6.741.779-10.141.781a2.8,2.8,0,0,0,.09-.329C264.467.3,259.254.235,254.35,1.274c-10.2,2.16-20.565,3.28-30.7,5.81-21.757,5.43-43.036,12.142-63.337,21.765-30.1,14.265-56.247,34.124-80.22,56.965-22.838,21.76-41.847,46.362-55.281,75.138-8.917,19.1-16.532,38.57-21.025,59.238A243.655,243.655,0,0,0,0,246.947V271.46c.984.445.306,2.134,1.959,2.33,2.619-6.875,3.141-14.277,5.1-21.359.256,9.139-1.285,18.325.614,27.842,3.1-2.91,3.018-6.3,3.356-9.545h0a69.024,69.024,0,0,1,1.784-12.966h0a191.4,191.4,0,0,1,7.045-38.009c2.886-9.663,6.06-19.239,9.118-28.85-.068-.027-.135-.052-.2-.071-3.081,4.949-4.136,10.775-6.793,15.905.231.039.1.114-.047.092-.231.443-.471.882-.729,1.313,6.049-20.872,15.064-40.425,26.234-59.264,1.258,1.616-.016,2.533-.488,3.4-4.043,7.4-6.814,15.426-11.3,22.629a32.734,32.734,0,0,0-4.864,13.029l0,0,0,0c.56,3.334-1.118,6.216-2.261,9.043-7.789,19.262-11.194,39.529-14.167,59.911h0c.666,5.7-1.078,11.033-2.488,16.417.192,4.93-.5,9.938,1.689,14.857C12.8,279.7,17.581,272.688,19.1,264.84c1.035-5.337,1.918-10.7,2.881-16.053,1.7-9.464,3.464-18.915,6.433-28.175,1.536,1.721-1.9,4.488,1.507,5.322,3.1.759,2.251-3.471,4.889-4.108,1.1,6.12-1.824,12.574,1.532,19.118.825-1.622,1.4-2.611,1.848-3.659,2.835-6.7,5.555-13.437,8.573-20.08,16.282-35.832,67.55-103.529,78.789-107.7-9.312,8.67-12.125,16.649-17.47,23.9,3.187-.912,4.993-2.794,6.954-4.393,9.961-8.125,19.672-16.573,29.865-24.394,57.666-44.241,122.358-61.329,194.113-48.334C458.07,77.839,542.78,187.3,533.937,307.914c-4.193,57.2-25.879,107.318-64.923,149.291C418,512.047,354.058,537.21,279.624,536.88a244.045,244.045,0,0,1-63.529-8.546h0c-12.525-4.155-25.032-8.362-37.12-13.7h0l-15.582-7.994a50.777,50.777,0,0,0,14.659,8.911h0c12.336,5.754,24.8,11.165,38.053,14.52h0c8.726,3.3,17.906,4.767,27,6.548,17.365,3.4,34.97,4.083,52.6,4.4,8.817-1.237,17.734-1.207,26.575-2.379,59.284-7.859,109.647-33.382,151.44-76.021,3.575-3.647,7.053-7.39,10.638-11.154.933,2.007-.372,3.023-1.332,4.153-37.8,44.53-84.9,72.981-142.85,82.732a246.064,246.064,0,0,1-40.591,3.578h0l-14.528,1.127c-35.041.154-68.169-8.23-99.984-22.44-21.922-9.79-41.9-22.711-60.634-37.647h0c-7.243-6.809-14.815-13.265-21.67-20.492-2.77-2.921-4.919-6.478-8.509-8.59,8.055,11.44,18.218,20.821,28.915,29.68-.036.092-.068.188-.1.288,1.038,2.887,3.7,4.243,5.8,6.113,4.294,3.827,9.391,6.625,13.649,10.508l-1.539.08c3.648,2.6,7.222,5.317,11.3,7.247a106.756,106.756,0,0,0,16.772,9.778c5.367,2.671,10.437,6.062,16.44,7.32a1.588,1.588,0,0,0-.079-.778c2.395,1.163,4.779,2.349,7.127,3.609,2.558,1.8,5.724,1.748,8.554,2.762A265.032,265.032,0,0,0,246.9,542.8c3.8.634,7.926.19,11.143,3.008,1.606,1.047,3.547,1.009,5.246.967,5.147-.127,10.361,2.121,15.443-.343h0c10.5.811,21.021.17,31.529.393.263-.021.527-.036.789-.059a.928.928,0,0,1-.087.074c.427.011.855.013,1.282.027-.527.061-1.054.114-1.581.172a1.683,1.683,0,0,1-.845.092A242.572,242.572,0,0,1,245.89,546c-41.347-6.5-78.116-23.737-111.523-48.585-1.689-1.257-3.43-2.444-5.146-3.664h0c.008-1.946-1.5-2.861-2.718-3.965a29.529,29.529,0,0,1-4.988-4.209c.48-.018.881-.069.417-.749a9.069,9.069,0,0,0-4.555-3.677c.539,1.722,1.979,2.39,2.8,3.451-2.2-1.479-3.887-3.527-5.789-5.337a3.914,3.914,0,0,1-1.14.111c-8.392-6.253-15-14.238-21.625-22.214a4.329,4.329,0,0,1,.16-1.291,16.311,16.311,0,0,1-3.372-5.706c-1.633-1.553-3.377-2.98-4.955-4.6-2.606-2.675-3.986-6.388-7.247-8.5L64.451,419.452h0a346.337,346.337,0,0,1-22.145-48.385c2.835,12.462,8.147,23.952,13.161,35.554.37.986.734,1.977,1.11,2.96a12.777,12.777,0,0,0-1.966-2l-9.667-18.921c-.505,4.019,1.351,7.272,2.4,10.746-.141.724-.282,1.448-.547,2.808C30.192,366.416,22.6,329.2,21.47,290.464c-.847,19.014,1.358,37.675,5.308,56.139a279.826,279.826,0,0,0,23.194,65.52l1.7,2.824c1.855,2.3,1.94,5.805,4.957,7.319q-.384-1.328-.766-2.656a48.007,48.007,0,0,1,3.549,5.816A268.493,268.493,0,0,0,87.97,465.98c6.593,7.882,14.463,14.492,21.165,22.234,4.546,3.665,8.981,7.462,13.445,11.224,1.008.849,2.061,1.878,3.577.928h0c9.581,8.505,20.45,15.17,31.325,21.81,3.837,2.343,7.868,4.367,11.806,6.545,1.559.862,3.344,1.457,4.056,3.348h0a275,275,0,0,0,70.834,22.661c9.334,1.642,18.925,1.82,28,5.04-8.113.025-16.121-1.172-24.088-2.481a271.428,271.428,0,0,1-80.122-26.329c-1.371-.7-3.3-.853-3.807-2.805-.532-.242-1.186.571-1.659-.19v0c-2.221-1.334-4.991-1.838-6.484-4.278-12.516-5.706-23.4-13.895-33.947-22.546-6.032-4.949-11.737-10.3-17.59-15.466a17.306,17.306,0,0,1-5.892-5.469c-4.176-5.845-10.134-9.719-15.213-14.553-.876-.213-1.746-1.634-2.632-.014h0c-1.488-.322-2.1-1.646-2.944-2.66a282.948,282.948,0,0,1-39.862-63.381L26.815,371.974c2.447,9.878,5.5,19.521,10.31,28.507h0a200.98,200.98,0,0,0,13.2,26.171c9.487,16.229,20.1,31.655,33.035,45.383a.422.422,0,0,0,.122.132c.552.711,1.05,1.472,1.663,2.126,38.16,40.741,82.841,71.088,137.181,86.031,13.149,2.988,26.267,6.157,39.734,7.428,6.417.605,12.846,1.081,19.269,1.615h0c4.989-.038,9.98-.18,14.968-.1,19.246.32,38.143-2.448,56.924-6.3h0c10.841-2.216,21.33-5.681,31.873-8.956h0c34.4-12.289,65.275-30.636,93.119-54.184,1.724-1.458,3.286-3.106,4.924-4.666a1.908,1.908,0,0,0,1.756-.164A318.535,318.535,0,0,1,455.1,518.8c-21.682,14.977-44.751,27.247-69.729,35.788A278.048,278.048,0,0,1,312.5,569.57a224.179,224.179,0,0,1-32.886.261c-11.893-.374-23.637-2.046-35.376-3.863-8-1.238-15.681-4-23.77-4.748a17.533,17.533,0,0,1-1.79-.281C107.663,531.917,22.524,433.705,9.806,320.092c-.573-5.122-.852-10.34-2.73-15.3a14.294,14.294,0,0,0-.564,4.231,153.721,153.721,0,0,0,2.505,25.7C19.082,395.072,45.359,447.267,89,490.153c51.806,50.914,114.366,78.364,186.923,82.869l28.313.016a286.019,286.019,0,0,0,135-40.515c20.562-12.264,39.476-26.688,55.98-44.12.419-.083.835-.171,1.261-.241,6.619-4.7,11.379-11.211,16.53-17.289A273.25,273.25,0,0,0,552.4,408.706c9.114-19.65,15.977-36.854,20.493-61.095C584.5,285.264,573.512,253.681,573.512,253.681ZM112.9,76.482a29.107,29.107,0,0,1-6.35,5.5h0L80.515,109.33,79.086,107.9c8.578-9.233,17.112-18.509,26.9-26.544h0a28.467,28.467,0,0,1,6.381-5.436v0a21.88,21.88,0,0,1,9.249-6.148Zm27.136-19.96v0a63.676,63.676,0,0,1-8.156,5.425,15.837,15.837,0,0,1-6.118,4.06,12.782,12.782,0,0,1,5.677-4.541v0c2.4-2.3,6.111-4.095,8.18-5.411,1.679-1.069,6.888-4,6.888-4S142.636,55.6,140.038,56.522ZM181.556,26.3c-22.284,9.223-42.982,21.317-62.888,34.907,2.716-3.486,6.425-5.637,9.966-7.971,16.773-11.056,34.248-20.8,52.985-28.168h0c2.769-1.871,5.991-2.3,9.324-2.513ZM153.109,507.029a1.146,1.146,0,0,0-.378.17,2.728,2.728,0,0,0-.148-.523C152.759,506.792,152.935,506.909,153.109,507.029ZM61.5,418.648a17.455,17.455,0,0,0,1.523,1.559c-.017.037-.035.072-.052.109a3.273,3.273,0,0,0,.056,1.258C62.512,420.607,62.006,419.629,61.5,418.648Zm3.226,5.99c.031.051.065.1.094.152,3.143,5.514,6.568,10.835,10.065,15.9C71.273,435.489,67.854,430.163,64.73,424.638Zm17.463,26.174.031.041.047.1C82.252,450.918,82.226,450.869,82.193,450.812Zm33.775,37.695c-7.419-7.283-15.234-14.155-21.734-22.389h0l-5.482-5.983a12.8,12.8,0,0,1,6.058,5.434h0l22.1,21.969Zm8.179,9.148a1.873,1.873,0,0,1-.267-1.292,1.21,1.21,0,0,1,.648-.3A16.158,16.158,0,0,0,124.147,497.655ZM485.915,494.1a5.318,5.318,0,0,1,.839-.742C486.475,493.609,486.194,493.855,485.915,494.1Z" fill="#ff9d33" stroke="#ffeace" stroke-width="2"/>
  </g>
</svg>
