<svg xmlns="http://www.w3.org/2000/svg" width="1922.461" height="802.579" viewBox="0 0 1922.461 802.579">
  <path id="footer-bg" d="M1922.461,802.579H0V42.176l.077-.012c3.478-.468,22.366-2.983,52.795-6.578,30.507-3.605,79.075-9.048,137.208-14.5,65.289-6.122,129.025-11,189.44-14.5C455.029,2.217,525.537,0,589.085,0c47.141,0,91.174,1.226,130.874,3.644,21.323,1.3,41.8,2.966,60.869,4.955,19.948,2.08,38.923,4.569,56.4,7.4,38.173,6.178,70.311,11.43,98.666,16.065l.306.05c191.13,31.236,194.781,31.833,444.755,54.32,34.291,3.085,69.924,5.4,105.909,6.873,32.715,1.341,66.432,2.021,100.214,2.021,43.917,0,88.874-1.141,133.62-3.392,35.819-1.8,71.572-4.313,106.264-7.463,30.6-2.779,54.835-5.568,69.777-7.42,15.572-1.928,24.708-3.284,25.7-3.432l.024,0v728.96Z" transform="translate(0)" fill="#ffeed8"/>
</svg>
