<svg xmlns="http://www.w3.org/2000/svg" width="1922.461" height="1053.327" viewBox="0 0 1922.461 1053.327">
  <path id="Вычитание_1" data-name="Вычитание 1" d="M1587.082,1053.327c-33.8,0-67.514-.679-100.213-2.02-35.968-1.475-71.6-3.789-105.914-6.875-249.972-22.487-253.623-23.084-444.749-54.319l-.712-.116c-28.361-4.635-60.505-9.888-98.266-16-17.483-2.829-36.457-5.318-56.4-7.4-19.088-1.99-39.569-3.657-60.874-4.955C680.242,959.227,636.211,958,589.086,958c-63.543,0-134.053,2.217-209.573,6.59-60.419,3.5-124.156,8.376-189.439,14.5-58.1,5.448-106.682,10.891-137.2,14.5-33.18,3.92-52.68,6.564-52.867,6.59v-958l.077-.011c3.466-.466,22.3-2.976,52.794-6.579,30.528-3.607,79.114-9.051,137.208-14.5,65.29-6.122,129.027-11,189.44-14.5C455.035,2.217,525.543,0,589.085,0c47.139,0,91.171,1.226,130.874,3.645,21.3,1.3,41.784,2.965,60.868,4.955,19.938,2.079,38.913,4.568,56.4,7.4,38.222,6.186,70.5,11.461,98.972,16.115,191.13,31.236,194.781,31.833,444.755,54.32,34.3,3.085,69.929,5.4,105.909,6.873,32.709,1.341,66.426,2.022,100.215,2.022,43.913,0,88.869-1.141,133.62-3.392,35.8-1.8,71.552-4.311,106.264-7.463,30.559-2.775,54.812-5.566,69.778-7.419,16.4-2.03,25.631-3.422,25.722-3.435v958l-.013,0c-1.5.225-37.459,5.582-95.5,10.851-34.719,3.151-70.471,5.662-106.265,7.462C1675.928,1052.185,1630.979,1053.326,1587.082,1053.327Z" fill="rgba(255,157,51,0.1)"/>
</svg>
