<?xml version="1.0" encoding="utf-8"?>
<!-- Generator: Adobe Illustrator 24.1.2, SVG Export Plug-In . SVG Version: 6.00 Build 0)  -->
<svg version="1.1" id="Слой_1" xmlns="http://www.w3.org/2000/svg" xmlns:xlink="http://www.w3.org/1999/xlink" x="0px" y="0px"
	 width="1922.5px" height="95.3px" viewBox="0 0 1922.5 95.3" style="enable-background:new 0 0 1922.5 95.3;" xml:space="preserve"
	>
<style type="text/css">
	.st0{opacity:0.11;}
	.st1{fill:#FF9D33;}
</style>
<g class="st0">
	<path class="st1" d="M1922.5,53.1L1922.5,53.1c-3.5,0.5-22.4,3-52.9,6.6c-30.5,3.6-79.1,9.1-137.2,14.5
		c-65.3,6.1-129,11-189.4,14.5c-75.5,4.4-146,6.6-209.6,6.6h589.1V53.1z"/>
	<path class="st1" d="M1333.4,95.3c-47.1,0-91.2-1.2-130.9-3.6c-21.3-1.3-41.8-3-60.9-5c-19.9-2.1-38.9-4.6-56.4-7.4
		c-38.2-6.2-70.5-11.5-99-16.1C795.1,32,791.5,31.4,541.5,8.9C507.2,5.8,471.6,3.5,435.6,2c-32.7-1.3-66.4-2-100.2-2
		c-43.9,0-88.9,1.1-133.6,3.4C166,5.2,130.2,7.7,95.5,10.9c-30.6,2.8-54.8,5.6-69.8,7.4C9.3,20.3,0.1,21.7,0,21.7l0,73.6H1333.4z"/>
</g>
</svg>
