<?xml version="1.0" encoding="utf-8"?>
<!-- Generator: Adobe Illustrator 24.1.2, SVG Export Plug-In . SVG Version: 6.00 Build 0)  -->
<svg version="1.1" id="Слой_1" xmlns="http://www.w3.org/2000/svg" xmlns:xlink="http://www.w3.org/1999/xlink" x="0px" y="0px"
	 width="1922.5px" height="95.3px" viewBox="0 0 1922.5 95.3" style="enable-background:new 0 0 1922.5 95.3;" xml:space="preserve"
	>
<style type="text/css">
	.st0{opacity:0.11;}
	.st1{fill:#FF9D33;}
</style>
<g class="st0">
	<path class="st1" d="M0,42.2L0,42.2c3.5-0.5,22.4-3,52.9-6.6C83.4,32,132,26.5,190.1,21.1c65.3-6.1,129-11,189.4-14.5
		C455,2.2,525.5,0,589.1,0H0V42.2z"/>
	<path class="st1" d="M589.1,0c47.1,0,91.2,1.2,130.9,3.6c21.3,1.3,41.8,3,60.9,5c19.9,2.1,38.9,4.6,56.4,7.4
		c38.2,6.2,70.5,11.5,99,16.1C1127.3,63.4,1131,63.9,1381,86.4c34.3,3.1,69.9,5.4,105.9,6.9c32.7,1.3,66.4,2,100.2,2
		c43.9,0,88.9-1.1,133.6-3.4c35.8-1.8,71.6-4.3,106.3-7.5c30.6-2.8,54.8-5.6,69.8-7.4c16.4-2,25.6-3.4,25.7-3.4V0H589.1z"/>
</g>
</svg>
